<svg xmlns="http://www.w3.org/2000/svg" xmlns:v="https://svgstorm.com"
viewBox = "0 0 1600 1600"
width="1600"
height="1600">
<g fill="None" fill-opacity="0.0" stroke="#000000" stroke-opacity="0.00" stroke-width="0.3"><path d="
M 0.00 1600.00 
L 1600.00 1600.00
L 1600.00 0.00
L 0.00 0.00
L 0.00 1600.00
M 730.00 181.00 
C 758.81 184.11 787.73 187.37 815.08 195.92 C 833.65 205.32 885.86 201.22 873.23 231.23 C 854.05 303.00 856.85 383.34 806.70 446.70 C 792.67 471.12 793.79 497.11 791.00 524.00
C 791.00 536.67 791.00 549.33 791.00 562.00
C 792.96 577.51 793.67 592.05 794.00 608.00
C 769.74 601.27 745.95 590.39 720.00 590.00 C 691.36 603.53 678.42 580.15 670.68 555.32 C 661.42 530.52 654.59 504.76 652.00 478.00
C 649.21 472.79 648.30 458.03 652.00 456.00
C 664.78 403.05 658.43 350.06 639.67 300.33 C 625.39 257.69 612.37 172.23 683.00 181.00
C 696.66 177.32 715.99 178.17 730.00 181.00
M 443.00 409.00 
C 430.67 400.63 421.90 388.27 413.00 377.00
C 385.24 342.48 355.57 263.37 424.02 257.02 C 472.10 239.73 521.02 224.19 569.22 207.22 C 587.68 203.69 637.72 175.41 619.07 213.07 C 611.82 295.42 670.29 367.76 642.00 448.00 C 639.95 497.27 652.58 550.87 681.00 593.00
C 652.94 599.88 617.27 601.33 589.31 618.31 C 559.78 641.40 538.19 595.56 523.08 575.92 C 489.98 523.10 491.56 453.74 443.00 409.00
M 1032.00 272.00 
C 1043.43 277.97 1055.51 282.98 1066.00 290.00
C 1070.16 291.74 1073.90 294.47 1078.00 296.00
C 1035.26 338.25 1032.41 401.99 989.25 446.25 C 940.18 483.95 894.47 521.96 896.00 585.00
C 896.09 595.68 896.42 606.33 896.00 617.00
C 895.22 626.18 899.69 634.21 898.00 643.00
C 864.75 619.96 790.20 631.58 800.00 574.00
C 797.92 571.90 799.50 567.85 799.00 565.00
C 797.34 553.07 797.33 537.86 799.00 526.00
C 799.28 524.72 798.24 522.50 800.00 522.00
C 798.00 468.40 830.15 425.93 852.77 380.77 C 876.71 332.18 861.08 269.43 890.08 224.08 C 940.17 222.74 985.85 254.62 1032.00 272.00
M 402.00 381.00 
C 410.68 390.86 421.30 400.49 429.00 411.00
C 470.06 437.35 473.56 486.46 488.99 526.01 C 503.79 566.55 532.24 600.69 557.00 635.00
C 516.57 660.47 477.80 690.38 440.00 719.00
C 429.00 708.83 418.12 697.96 408.00 687.00
C 399.51 679.99 392.45 670.96 384.00 664.00
C 363.33 644.17 342.79 623.62 323.00 603.00
C 314.65 593.93 306.13 585.14 298.00 576.00
C 295.13 571.88 290.67 568.61 289.00 564.00
C 278.93 554.79 268.60 544.79 261.00 534.00
C 235.06 501.93 206.32 471.68 185.08 436.92 C 192.72 395.25 248.32 385.79 272.25 351.25 C 304.93 326.09 334.62 294.67 372.00 278.00
C 368.93 314.95 382.07 350.22 402.00 381.00
M 1158.00 341.00 
C 1157.43 340.06 1156.85 339.18 1157.00 338.00
C 1168.21 347.97 1178.80 358.91 1187.00 371.00
C 1198.89 385.35 1209.96 400.08 1221.30 414.70 C 1233.23 428.98 1255.28 451.57 1223.26 449.26 C 1146.12 461.83 1133.23 574.68 1058.77 590.77 C 1040.34 597.34 1024.63 608.24 1009.00 618.00
C 997.33 627.99 985.47 639.63 975.00 651.00
C 963.10 667.26 954.02 693.25 935.30 668.70 C 878.15 628.45 905.53 532.88 949.75 490.75 C 1007.74 459.46 1034.48 401.25 1056.31 343.31 C 1072.48 291.42 1130.79 308.46 1158.00 341.00
M 995.00 738.00 
C 989.33 734.37 981.07 721.28 984.00 719.00
C 947.24 686.42 987.39 647.13 1018.08 627.08 C 1070.32 600.86 1125.40 574.55 1152.25 518.25 C 1174.24 487.68 1208.83 448.95 1249.25 458.75 C 1290.56 506.52 1304.82 569.66 1316.99 630.01 C 1312.86 650.08 1270.46 630.33 1253.97 642.02 C 1196.61 661.09 1151.29 716.55 1084.33 713.33 C 1064.58 717.40 1046.47 727.33 1031.75 741.75 C 1017.48 764.40 1005.41 759.84 995.00 738.00
M 744.00 749.00 
C 714.63 779.60 681.10 748.43 667.08 717.92 C 649.19 685.49 658.15 643.87 634.00 614.00
C 662.89 605.41 693.99 604.54 725.00 604.00 C 759.04 599.86 754.92 648.89 755.78 670.22 C 745.98 696.24 740.19 720.62 744.00 749.00
M 758.00 753.00 
C 745.72 752.33 751.17 734.02 750.00 725.00
C 751.67 725.24 750.17 727.85 752.00 728.00
C 758.40 687.71 771.46 646.66 754.00 607.00
C 789.59 619.42 881.00 619.22 851.08 675.08 C 819.95 705.34 813.59 776.99 758.00 753.00
M 633.00 637.00 
C 644.76 686.49 656.44 734.49 694.00 772.00
C 674.70 782.02 651.06 819.75 627.77 794.23 C 606.91 776.00 587.27 754.97 579.00 729.00
C 564.85 706.89 554.92 678.92 531.00 664.00
C 532.22 660.65 534.90 662.20 537.00 660.00
C 561.43 645.85 586.15 629.80 612.00 619.00
C 622.47 615.28 628.13 630.01 633.00 637.00
M 932.00 673.00 
C 939.64 687.43 972.68 703.60 961.00 718.00
C 942.43 732.72 915.93 724.99 897.00 731.00
C 874.33 744.08 864.23 770.17 849.00 790.00
C 836.74 781.17 817.37 777.32 810.00 765.00
C 817.08 720.68 868.78 692.82 867.00 644.00
C 890.08 649.17 912.51 659.02 932.00 673.00
M 1040.00 860.00 
C 1037.31 835.60 1044.34 809.13 1032.07 786.93 C 1006.08 741.93 1083.16 722.95 1116.67 721.67 C 1182.54 714.48 1224.27 644.36 1294.00 648.00 C 1347.26 654.72 1333.91 722.13 1346.98 760.02 C 1348.08 783.68 1352.20 803.74 1351.00 828.00 C 1348.87 851.87 1317.98 810.34 1299.33 818.33 C 1230.80 802.46 1173.82 879.31 1104.00 846.00 C 1080.16 841.17 1059.43 850.71 1040.00 860.00
M 638.00 812.00 
C 625.70 864.20 570.29 838.85 541.92 814.08 C 513.93 784.13 480.27 761.98 442.00 752.00
C 455.70 714.60 514.64 651.72 550.75 698.25 C 574.12 738.79 593.59 789.71 638.00 812.00
M 972.00 725.00 
C 990.74 750.57 1053.11 801.68 1005.78 820.78 C 963.12 825.37 904.60 790.00 877.00 843.00
C 863.74 815.73 851.91 783.12 881.30 759.30 C 900.52 726.53 945.97 747.49 972.00 725.00
M 441.00 762.00 
C 490.01 765.94 518.79 813.35 558.23 837.77 C 574.73 855.19 624.06 841.11 613.68 873.68 C 595.02 925.36 522.38 898.95 480.98 888.02 C 454.40 881.10 425.66 877.49 398.78 884.78 C 370.99 885.00 398.50 839.13 403.92 821.92 C 419.72 804.56 423.08 773.39 441.00 762.00
M 772.00 765.00 
C 794.43 777.69 795.72 808.05 791.00 831.00 C 784.60 864.42 747.83 833.71 752.01 810.99 C 736.95 787.75 732.18 754.19 772.00 765.00
M 732.00 846.00 
C 730.97 847.43 726.96 847.69 726.00 846.00
C 715.76 835.58 701.31 824.36 695.00 813.00
C 692.25 809.51 689.73 806.06 688.00 802.00
C 679.11 792.88 697.18 784.46 703.00 778.00
C 710.15 774.21 717.64 770.54 726.00 770.00
C 729.51 793.18 774.19 838.64 732.00 846.00
M 795.00 771.00 
C 812.99 784.57 853.06 791.94 849.23 820.23 C 841.57 840.01 811.87 870.26 795.03 862.98 C 795.81 832.38 808.15 801.50 795.00 771.00
M 696.00 828.00 
C 708.97 838.62 720.71 852.22 702.00 863.00
C 679.13 855.49 654.40 843.98 630.00 853.00
C 629.65 830.37 655.13 812.46 671.00 802.00
C 680.30 805.78 686.74 820.52 696.00 828.00
M 1026.00 824.00 
C 1032.98 845.38 1028.48 866.91 1021.08 887.08 C 1012.48 912.83 988.43 881.56 967.98 892.98 C 936.86 900.51 854.03 881.48 895.25 837.25 C 931.82 800.04 985.34 850.92 1026.00 824.00
M 819.00 899.00 
C 810.82 893.26 808.14 882.98 805.00 874.00
C 828.23 868.01 847.44 848.53 857.00 827.00
C 865.54 839.04 877.50 864.55 868.92 876.92 C 853.62 887.21 837.83 899.41 819.00 899.00
M 1003.00 949.00 
C 1019.94 898.94 1049.30 839.02 1115.07 856.93 C 1172.79 886.25 1219.17 825.59 1278.00 832.00 C 1303.02 834.51 1346.79 829.90 1349.33 863.67 C 1343.10 916.15 1328.72 960.20 1307.68 1010.68 C 1294.35 1035.03 1260.90 993.21 1235.00 1005.00 C 1204.16 1002.37 1174.41 1019.25 1144.92 1012.08 C 1102.14 981.53 1062.03 937.44 1003.00 949.00
M 800.00 883.00 
C 774.83 895.23 761.25 872.33 771.00 850.00
C 785.17 855.31 794.07 870.24 800.00 883.00
M 741.00 881.00 
C 732.24 882.08 725.67 870.15 720.00 864.00
C 719.15 861.65 715.76 860.77 716.00 858.00
C 731.07 857.32 745.49 853.88 760.00 851.00
C 760.32 854.34 759.16 858.07 761.00 861.00
C 754.46 865.58 756.58 878.02 748.00 882.00
C 746.03 880.41 743.34 881.20 741.00 881.00
M 657.00 910.00 
C 644.06 913.30 627.63 915.21 616.00 915.00
C 618.17 893.92 620.55 857.44 651.00 862.00 C 680.02 851.89 700.28 878.18 689.00 904.00
C 680.28 911.27 668.73 908.63 657.00 910.00
M 728.00 884.00 
C 729.78 886.79 732.12 889.49 732.00 893.00
C 721.13 890.28 709.95 887.40 700.00 882.00
C 701.46 877.69 704.55 873.92 707.00 870.00
C 711.92 862.10 723.73 878.20 728.00 884.00
M 854.00 934.00 
C 848.92 935.07 832.67 931.63 833.00 930.00
C 816.12 931.61 790.27 903.08 822.00 908.00 C 840.82 908.08 855.53 895.48 871.00 887.00
C 870.96 893.52 870.60 900.11 873.00 906.00
C 865.45 912.60 868.56 934.39 854.00 934.00
M 759.00 890.00 
C 762.51 902.05 767.48 917.72 752.00 924.00
C 734.59 916.59 740.79 890.13 759.00 890.00
M 598.00 955.00 
C 587.12 963.50 577.88 975.73 566.00 983.00
C 505.20 998.07 441.29 992.78 391.00 1042.00
C 377.75 1003.40 373.60 958.74 380.33 917.33 C 390.99 873.41 455.02 893.36 487.01 899.99 C 524.08 913.46 568.58 919.41 606.00 903.00
C 603.07 920.94 618.60 943.98 598.00 955.00
M 1007.00 912.00 
C 1000.61 931.61 987.68 946.66 978.08 964.08 C 965.07 980.18 938.44 956.13 920.77 952.23 C 903.49 943.91 877.02 930.52 881.00 907.00 C 881.85 875.74 920.38 905.59 938.01 904.99 C 960.79 907.75 988.28 891.53 1007.00 912.00
M 802.00 900.00 
C 795.42 911.88 789.08 927.53 770.00 922.00
C 763.32 901.69 787.68 886.71 802.00 900.00
M 709.00 896.00 
C 721.30 895.55 737.38 909.88 716.97 911.02 C 702.15 920.88 688.08 893.91 709.00 896.00
M 698.00 935.00 
C 668.11 950.35 657.33 985.86 654.00 1013.00
C 649.17 1013.99 649.59 1020.29 647.00 1024.00
C 630.60 1009.97 631.07 986.83 625.07 967.93 C 619.31 947.94 606.97 917.89 641.00 923.00 C 659.40 922.99 694.66 905.94 698.00 935.00
M 733.00 944.00 
C 726.65 959.15 710.53 932.45 710.00 929.00
C 699.63 915.96 742.42 917.02 742.00 932.00
C 737.04 932.76 735.23 939.87 733.00 944.00
M 853.00 947.00 
C 831.34 981.48 799.17 957.93 788.00 929.00
C 811.20 925.70 832.18 939.05 853.00 947.00
M 753.00 933.00 
C 760.73 943.40 768.75 983.33 745.77 968.23 C 721.63 962.56 745.23 942.67 753.00 933.00
M 805.00 974.00 
C 776.31 989.48 767.72 960.29 766.00 937.00
C 784.48 928.63 799.74 959.40 805.00 974.00
M 902.00 1026.00 
C 888.37 1016.14 877.38 1002.41 868.00 989.00
C 850.25 972.10 854.70 952.31 874.00 938.00
C 903.00 953.82 936.28 962.17 962.00 984.00
C 944.99 999.24 928.95 1047.23 902.00 1026.00
M 696.00 1077.00 
C 695.84 1078.41 695.35 1080.34 694.00 1081.00
C 683.10 1069.96 667.68 1062.17 659.00 1049.00
C 647.46 1024.82 668.22 998.48 674.77 974.77 C 680.48 947.21 713.39 933.78 722.00 967.00
C 673.73 982.05 707.14 1041.52 696.00 1077.00
M 606.00 1050.00 
C 596.71 1062.29 585.61 1074.18 573.00 1083.00
C 555.17 1099.57 531.82 1107.99 511.00 1120.00
C 502.97 1126.08 494.20 1135.10 489.00 1142.00
C 487.91 1145.23 485.20 1150.00 482.00 1153.00
C 473.46 1168.73 454.47 1211.66 441.75 1176.25 C 430.76 1155.12 417.85 1133.33 411.68 1111.32 C 408.03 1090.54 380.14 1056.56 403.70 1042.69 C 463.60 989.93 559.44 1025.33 609.00 956.00
C 616.81 988.36 643.80 1026.19 606.00 1050.00
M 1090.00 981.00 
C 1101.14 987.12 1111.96 1001.12 1122.00 1011.00
C 1151.65 1037.44 1191.13 1013.37 1226.00 1016.00 C 1254.51 1013.03 1315.43 1022.71 1286.09 1059.10 C 1273.36 1084.91 1257.90 1112.58 1241.74 1137.74 C 1225.51 1160.70 1200.64 1198.21 1168.98 1177.03 C 1068.53 1164.69 1053.90 1030.21 953.00 1017.00
C 972.48 1000.22 978.63 968.21 1003.02 959.02 C 1034.29 957.67 1066.46 960.39 1090.00 981.00
M 855.00 1077.00 
C 844.10 1066.43 832.03 1055.97 823.00 1044.00
C 790.51 1020.66 799.90 968.79 841.75 973.25 C 859.47 999.66 879.71 1027.27 909.00 1042.00
C 894.34 1057.35 877.14 1077.93 855.00 1077.00
M 737.00 975.00 
C 764.37 975.65 732.99 1009.98 746.00 1029.00 C 751.39 1049.14 761.35 1067.71 767.32 1087.68 C 771.97 1109.94 730.34 1092.39 715.98 1092.02 C 699.83 1076.60 710.68 1044.25 706.33 1022.33 C 702.77 1001.13 709.05 971.32 737.00 975.00
M 792.00 988.00 
C 788.65 1009.15 796.66 1029.27 810.30 1045.70 C 817.45 1059.31 855.34 1075.70 838.99 1086.99 C 819.12 1086.24 789.07 1109.98 777.01 1088.99 C 767.63 1056.97 723.50 973.16 792.00 988.00
M 1029.00 1070.00 
C 1028.46 1068.34 1026.44 1067.67 1026.00 1066.00
C 1032.80 1070.20 1039.54 1077.26 1044.00 1084.00
C 1064.48 1107.98 1070.52 1144.44 1102.08 1157.92 C 1130.52 1176.26 1170.17 1181.80 1195.00 1198.00
C 1186.00 1214.13 1169.31 1226.67 1155.00 1238.00
C 1130.19 1255.89 1102.96 1269.47 1075.31 1284.31 C 1044.80 1312.77 1018.23 1289.01 1000.75 1260.25 C 952.10 1211.20 969.89 1132.43 923.00 1082.00
C 917.39 1075.16 909.23 1066.76 907.00 1060.00
C 940.97 1010.67 995.48 1034.37 1029.00 1070.00
M 646.00 1177.00 
C 637.82 1188.39 626.39 1197.80 616.00 1207.00
C 599.86 1221.72 584.31 1237.50 574.08 1256.08 C 560.40 1270.74 575.42 1317.57 544.31 1294.70 C 509.25 1273.12 467.78 1235.97 464.75 1194.75 C 490.73 1159.31 512.68 1118.11 558.69 1105.70 C 579.15 1097.13 593.02 1078.99 605.25 1061.25 C 618.44 1044.98 638.50 1018.35 649.31 1050.70 C 691.74 1083.54 671.97 1141.49 646.00 1177.00
M 969.00 1232.00 
C 972.19 1240.25 978.51 1246.55 983.00 1254.00
C 989.10 1258.89 993.54 1265.46 999.00 1271.00
C 1010.66 1281.84 1022.22 1293.38 1033.00 1305.00
C 1033.15 1305.45 1032.80 1306.60 1033.00 1307.00
C 1018.78 1326.82 981.76 1330.50 959.78 1340.78 C 938.82 1342.09 897.68 1375.19 885.69 1343.31 C 876.07 1314.67 862.95 1287.08 858.00 1257.00
C 854.35 1252.10 855.57 1243.02 858.00 1238.00
C 861.30 1201.96 866.75 1162.89 851.70 1129.31 C 820.09 1089.48 878.10 1093.67 896.00 1069.00
C 950.44 1108.51 949.16 1176.77 969.00 1232.00
M 730.00 1328.00 
C 730.66 1336.00 732.03 1344.47 732.00 1352.00
C 732.00 1354.00 732.00 1356.00 732.00 1358.00
C 723.24 1359.94 709.71 1359.65 700.00 1358.00
C 659.39 1350.81 621.70 1332.45 585.77 1312.23 C 553.35 1282.95 598.78 1237.57 624.25 1215.25 C 657.89 1191.77 680.33 1154.78 685.00 1115.00
C 683.47 1110.31 683.24 1103.28 685.00 1099.00
C 685.71 1095.39 683.77 1092.51 684.00 1089.00
C 706.38 1109.97 758.76 1095.26 748.00 1141.00 C 750.99 1206.53 721.13 1260.64 730.00 1328.00
M 848.00 1223.00 
C 846.85 1233.85 847.84 1245.49 847.00 1257.00
C 850.08 1293.50 868.06 1326.73 881.00 1360.00
C 873.63 1361.96 866.29 1360.79 858.00 1361.00
C 856.67 1361.00 855.33 1361.00 854.00 1361.00
C 840.81 1363.72 815.00 1361.06 797.00 1362.00
C 790.23 1362.19 783.18 1363.26 777.00 1361.00
C 766.03 1361.03 756.25 1362.25 746.00 1359.00
C 718.33 1288.45 760.01 1216.69 757.00 1144.00
C 755.34 1133.07 755.33 1118.86 757.00 1108.00
C 785.55 1124.81 834.11 1081.46 839.32 1124.68 C 852.78 1155.55 853.34 1189.79 848.00 1223.00 Z"/>
</g>
<g fill="None" fill-opacity="0.0" stroke="#000000" stroke-opacity="0.22" stroke-width="0.3"><path d="
M 683.00 181.00 
C 684.33 181.00 685.67 181.00 687.00 181.00
C 697.59 179.34 711.48 179.33 722.00 181.00
C 724.67 181.00 727.33 181.00 730.00 181.00
C 715.99 178.17 696.66 177.32 683.00 181.00 Z"/>
</g>
<g fill="None" fill-opacity="0.0" stroke="#000000" stroke-opacity="0.72" stroke-width="0.3"><path d="
M 687.00 181.00 
C 698.67 181.00 710.33 181.00 722.00 181.00
C 711.48 179.33 697.59 179.34 687.00 181.00 Z"/>
</g>
<g fill="None" fill-opacity="0.0" stroke="#000000" stroke-opacity="0.99" stroke-width="0.3"><path d="
M 652.00 456.00 
C 652.00 463.33 652.00 470.67 652.00 478.00
C 654.59 504.76 661.42 530.52 670.68 555.32 C 678.42 580.15 691.36 603.53 720.00 590.00 C 745.95 590.39 769.74 601.27 794.00 608.00
C 793.67 592.05 792.96 577.51 791.00 562.00
C 789.34 550.87 789.33 532.86 791.00 524.00
C 793.79 497.11 792.67 471.12 806.70 446.70 C 856.85 383.34 854.05 303.00 873.23 231.23 C 885.86 201.22 833.65 205.32 815.08 195.92 C 787.73 187.37 758.81 184.11 730.00 181.00
C 727.33 181.00 724.67 181.00 722.00 181.00
C 710.33 181.00 698.67 181.00 687.00 181.00
C 685.67 181.00 684.33 181.00 683.00 181.00
C 612.37 172.23 625.39 257.69 639.67 300.33 C 658.43 350.06 664.78 403.05 652.00 456.00 Z"/>
</g>
<g fill="None" fill-opacity="0.0" stroke="#000000" stroke-opacity="0.99" stroke-width="0.3"><path d="
M 413.00 377.00 
C 422.83 387.47 432.78 398.53 443.00 409.00
C 491.56 453.74 489.98 523.10 523.08 575.92 C 538.19 595.56 559.78 641.40 589.31 618.31 C 617.27 601.33 652.94 599.88 681.00 593.00
C 652.58 550.87 639.95 497.27 642.00 448.00 C 670.29 367.76 611.82 295.42 619.07 213.07 C 637.72 175.41 587.68 203.69 569.22 207.22 C 521.02 224.19 472.10 239.73 424.02 257.02 C 355.57 263.37 385.24 342.48 413.00 377.00 Z"/>
</g>
<g fill="None" fill-opacity="0.0" stroke="#000000" stroke-opacity="0.99" stroke-width="0.3"><path d="
M 800.00 522.00 
C 800.00 539.33 800.00 556.67 800.00 574.00
C 790.20 631.58 864.75 619.96 898.00 643.00
C 899.69 634.21 895.22 626.18 896.00 617.00
C 894.35 607.41 894.32 594.52 896.00 585.00
C 894.47 521.96 940.18 483.95 989.25 446.25 C 1032.41 401.99 1035.26 338.25 1078.00 296.00
C 1073.90 294.47 1070.16 291.74 1066.00 290.00
C 1054.61 284.57 1042.43 278.98 1032.00 272.00
C 985.85 254.62 940.17 222.74 890.08 224.08 C 861.08 269.43 876.71 332.18 852.77 380.77 C 830.15 425.93 798.00 468.40 800.00 522.00 Z"/>
</g>
<g fill="None" fill-opacity="0.0" stroke="#000000" stroke-opacity="0.69" stroke-width="0.3"><path d="
M 1066.00 290.00 
C 1055.51 282.98 1043.43 277.97 1032.00 272.00
C 1042.43 278.98 1054.61 284.57 1066.00 290.00 Z"/>
</g>
<g fill="None" fill-opacity="0.0" stroke="#000000" stroke-opacity="0.99" stroke-width="0.3"><path d="
M 261.00 534.00 
C 270.98 543.30 279.38 554.23 289.00 564.00
C 290.67 568.61 295.13 571.88 298.00 576.00
C 305.33 582.51 312.55 589.71 319.00 597.00
C 358.96 637.20 402.63 678.10 440.00 718.00
C 440.23 718.16 440.00 719.00 440.00 719.00
C 477.80 690.38 516.57 660.47 557.00 635.00
C 532.24 600.69 503.79 566.55 488.99 526.01 C 473.56 486.46 470.06 437.35 429.00 411.00
C 418.96 401.93 409.38 391.97 402.00 381.00
C 382.07 350.22 368.93 314.95 372.00 278.00
C 334.62 294.67 304.93 326.09 272.25 351.25 C 248.32 385.79 192.72 395.25 185.08 436.92 C 206.32 471.68 235.06 501.93 261.00 534.00 Z"/>
</g>
<g fill="None" fill-opacity="0.0" stroke="#000000" stroke-opacity="0.99" stroke-width="0.3"><path d="
M 975.00 651.00 
C 982.30 639.65 997.44 624.56 1009.00 618.00
C 1024.63 608.24 1040.34 597.34 1058.77 590.77 C 1133.23 574.68 1146.12 461.83 1223.26 449.26 C 1255.28 451.57 1233.23 428.98 1221.30 414.70 C 1209.96 400.08 1198.89 385.35 1187.00 371.00
C 1178.13 360.87 1168.47 350.06 1158.00 341.00
C 1130.79 308.46 1072.48 291.42 1056.31 343.31 C 1034.48 401.25 1007.74 459.46 949.75 490.75 C 905.53 532.88 878.15 628.45 935.30 668.70 C 954.02 693.25 963.10 667.26 975.00 651.00 Z"/>
</g>
<g fill="None" fill-opacity="0.0" stroke="#000000" stroke-opacity="0.40" stroke-width="0.3"><path d="
M 1158.00 341.00 
C 1168.47 350.06 1178.13 360.87 1187.00 371.00
C 1178.80 358.91 1168.21 347.97 1157.00 338.00
C 1156.85 339.18 1157.43 340.06 1158.00 341.00 Z"/>
</g>
<g fill="None" fill-opacity="0.0" stroke="#000000" stroke-opacity="0.52" stroke-width="0.3"><path d="
M 443.00 409.00 
C 432.78 398.53 422.83 387.47 413.00 377.00
C 421.90 388.27 430.67 400.63 443.00 409.00 Z"/>
</g>
<g fill="None" fill-opacity="0.0" stroke="#000000" stroke-opacity="0.52" stroke-width="0.3"><path d="
M 429.00 411.00 
C 421.30 400.49 410.68 390.86 402.00 381.00
C 409.38 391.97 418.96 401.93 429.00 411.00 Z"/>
</g>
<g fill="None" fill-opacity="0.0" stroke="#000000" stroke-opacity="0.47" stroke-width="0.3"><path d="
M 652.00 478.00 
C 652.00 470.67 652.00 463.33 652.00 456.00
C 648.30 458.03 649.21 472.79 652.00 478.00 Z"/>
</g>
<g fill="None" fill-opacity="0.0" stroke="#000000" stroke-opacity="0.99" stroke-width="0.3"><path d="
M 984.00 719.00 
C 986.28 725.94 990.90 731.94 995.00 738.00
C 1005.41 759.84 1017.48 764.40 1031.75 741.75 C 1046.47 727.33 1064.58 717.40 1084.33 713.33 C 1151.29 716.55 1196.61 661.09 1253.97 642.02 C 1270.46 630.33 1312.86 650.08 1316.99 630.01 C 1304.82 569.66 1290.56 506.52 1249.25 458.75 C 1208.83 448.95 1174.24 487.68 1152.25 518.25 C 1125.40 574.55 1070.32 600.86 1018.08 627.08 C 987.39 647.13 947.24 686.42 984.00 719.00 Z"/>
</g>
<g fill="None" fill-opacity="0.0" stroke="#000000" stroke-opacity="0.89" stroke-width="0.3"><path d="
M 799.00 526.00 
C 799.00 539.00 799.00 552.00 799.00 565.00
C 799.50 567.85 797.92 571.90 800.00 574.00
C 800.00 556.67 800.00 539.33 800.00 522.00
C 798.24 522.50 799.28 524.72 799.00 526.00 Z"/>
</g>
<g fill="None" fill-opacity="0.0" stroke="#000000" stroke-opacity="0.47" stroke-width="0.3"><path d="
M 791.00 562.00 
C 791.00 549.33 791.00 536.67 791.00 524.00
C 789.33 532.86 789.34 550.87 791.00 562.00 Z"/>
</g>
<g fill="None" fill-opacity="0.0" stroke="#000000" stroke-opacity="0.44" stroke-width="0.3"><path d="
M 799.00 565.00 
C 799.00 552.00 799.00 539.00 799.00 526.00
C 797.33 537.86 797.34 553.07 799.00 565.00 Z"/>
</g>
<g fill="None" fill-opacity="0.0" stroke="#000000" stroke-opacity="0.63" stroke-width="0.3"><path d="
M 289.00 564.00 
C 279.38 554.23 270.98 543.30 261.00 534.00
C 268.60 544.79 278.93 554.79 289.00 564.00 Z"/>
</g>
<g fill="None" fill-opacity="0.0" stroke="#000000" stroke-opacity="0.32" stroke-width="0.3"><path d="
M 323.00 603.00 
C 324.25 603.30 324.71 604.83 326.00 605.00
C 324.27 601.89 320.67 600.08 319.00 597.00
C 312.55 589.71 305.33 582.51 298.00 576.00
C 306.13 585.14 314.65 593.93 323.00 603.00 Z"/>
</g>
<g fill="None" fill-opacity="0.0" stroke="#020202" stroke-opacity="0.32" stroke-width="0.3"><path d="
M 896.00 617.00 
C 896.42 606.33 896.09 595.68 896.00 585.00
C 894.32 594.52 894.35 607.41 896.00 617.00 Z"/>
</g>
<g fill="None" fill-opacity="0.0" stroke="#000000" stroke-opacity="0.75" stroke-width="0.3"><path d="
M 326.00 605.00 
C 353.67 631.84 381.21 659.38 408.00 687.00
C 419.16 696.67 428.88 708.38 440.00 718.00
C 402.63 678.10 358.96 637.20 319.00 597.00
C 320.67 600.08 324.27 601.89 326.00 605.00 Z"/>
</g>
<g fill="None" fill-opacity="0.0" stroke="#000000" stroke-opacity="0.11" stroke-width="0.3"><path d="
M 384.00 664.00 
C 365.33 643.83 344.62 625.12 326.00 605.00
C 324.71 604.83 324.25 603.30 323.00 603.00
C 342.79 623.62 363.33 644.17 384.00 664.00 Z"/>
</g>
<g fill="None" fill-opacity="0.0" stroke="#000000" stroke-opacity="0.98" stroke-width="0.3"><path d="
M 744.00 749.00 
C 740.19 720.62 745.98 696.24 755.78 670.22 C 754.92 648.89 759.04 599.86 725.00 604.00 C 693.99 604.54 662.89 605.41 634.00 614.00
C 658.15 643.87 649.19 685.49 667.08 717.92 C 681.10 748.43 714.63 779.60 744.00 749.00 Z"/>
</g>
<g fill="None" fill-opacity="0.0" stroke="#000000" stroke-opacity="0.43" stroke-width="0.3"><path d="
M 384.00 664.00 
C 392.45 670.96 399.51 679.99 408.00 687.00
C 381.21 659.38 353.67 631.84 326.00 605.00
C 344.62 625.12 365.33 643.83 384.00 664.00 Z"/>
</g>
<g fill="None" fill-opacity="0.0" stroke="#000000" stroke-opacity="0.98" stroke-width="0.3"><path d="
M 752.00 728.00 
C 753.35 736.33 747.91 749.65 758.00 753.00
C 813.59 776.99 819.95 705.34 851.08 675.08 C 881.00 619.22 789.59 619.42 754.00 607.00
C 771.46 646.66 758.40 687.71 752.00 728.00 Z"/>
</g>
<g fill="None" fill-opacity="0.0" stroke="#000000" stroke-opacity="0.51" stroke-width="0.3"><path d="
M 975.00 651.00 
C 985.47 639.63 997.33 627.99 1009.00 618.00
C 997.44 624.56 982.30 639.65 975.00 651.00 Z"/>
</g>
<g fill="None" fill-opacity="0.0" stroke="#000000" stroke-opacity="0.52" stroke-width="0.3"><path d="
M 612.00 619.00 
C 624.00 616.98 625.08 631.96 633.00 637.00
C 628.13 630.01 622.47 615.28 612.00 619.00 Z"/>
</g>
<g fill="None" fill-opacity="0.0" stroke="#000000" stroke-opacity="0.98" stroke-width="0.3"><path d="
M 537.00 660.00 
C 536.46 661.66 534.44 662.33 534.00 664.00
C 555.87 680.47 567.26 705.71 579.00 729.00
C 587.27 754.97 606.91 776.00 627.77 794.23 C 651.06 819.75 674.70 782.02 694.00 772.00
C 656.44 734.49 644.76 686.49 633.00 637.00
C 625.08 631.96 624.00 616.98 612.00 619.00
C 586.15 629.80 561.43 645.85 537.00 660.00 Z"/>
</g>
<g fill="None" fill-opacity="0.0" stroke="#000000" stroke-opacity="0.99" stroke-width="0.3"><path d="
M 810.00 765.00 
C 820.51 776.24 836.06 780.64 849.00 788.00
C 863.97 769.25 874.39 739.43 897.00 731.00
C 915.93 724.99 942.43 732.72 961.00 718.00
C 962.26 716.07 964.00 714.09 966.00 713.00
C 954.74 699.82 942.59 686.78 932.00 673.00
C 912.51 659.02 890.08 649.17 867.00 644.00
C 868.78 692.82 817.08 720.68 810.00 765.00 Z"/>
</g>
<g fill="None" fill-opacity="0.0" stroke="#000000" stroke-opacity="0.99" stroke-width="0.3"><path d="
M 1040.00 860.00 
C 1059.43 850.71 1080.16 841.17 1104.00 846.00 C 1173.82 879.31 1230.80 802.46 1299.33 818.33 C 1317.98 810.34 1348.87 851.87 1351.00 828.00 C 1352.20 803.74 1348.08 783.68 1346.98 760.02 C 1333.91 722.13 1347.26 654.72 1294.00 648.00 C 1224.27 644.36 1182.54 714.48 1116.67 721.67 C 1083.16 722.95 1006.08 741.93 1032.07 786.93 C 1044.34 809.13 1037.31 835.60 1040.00 860.00 Z"/>
</g>
<g fill="None" fill-opacity="0.0" stroke="#000000" stroke-opacity="0.50" stroke-width="0.3"><path d="
M 579.00 729.00 
C 567.26 705.71 555.87 680.47 534.00 664.00
C 534.44 662.33 536.46 661.66 537.00 660.00
C 534.90 662.20 532.22 660.65 531.00 664.00
C 554.92 678.92 564.85 706.89 579.00 729.00 Z"/>
</g>
<g fill="None" fill-opacity="0.0" stroke="#000000" stroke-opacity="0.51" stroke-width="0.3"><path d="
M 961.00 718.00 
C 972.68 703.60 939.64 687.43 932.00 673.00
C 942.59 686.78 954.74 699.82 966.00 713.00
C 964.00 714.09 962.26 716.07 961.00 718.00 Z"/>
</g>
<g fill="None" fill-opacity="0.0" stroke="#000000" stroke-opacity="0.98" stroke-width="0.3"><path d="
M 638.00 812.00 
C 593.59 789.71 574.12 738.79 550.75 698.25 C 514.64 651.72 455.70 714.60 442.00 752.00
C 480.27 761.98 513.93 784.13 541.92 814.08 C 570.29 838.85 625.70 864.20 638.00 812.00 Z"/>
</g>
<g fill="None" fill-opacity="0.0" stroke="#000000" stroke-opacity="0.12" stroke-width="0.3"><path d="
M 440.00 719.00 
C 440.00 719.00 440.23 718.16 440.00 718.00
C 428.88 708.38 419.16 696.67 408.00 687.00
C 418.12 697.96 429.00 708.83 440.00 719.00 Z"/>
</g>
<g fill="None" fill-opacity="0.0" stroke="#000000" stroke-opacity="0.51" stroke-width="0.3"><path d="
M 995.00 738.00 
C 990.90 731.94 986.28 725.94 984.00 719.00
C 981.07 721.28 989.33 734.37 995.00 738.00 Z"/>
</g>
<g fill="None" fill-opacity="0.0" stroke="#000000" stroke-opacity="0.40" stroke-width="0.3"><path d="
M 758.00 753.00 
C 747.91 749.65 753.35 736.33 752.00 728.00
C 750.17 727.85 751.67 725.24 750.00 725.00
C 751.17 734.02 745.72 752.33 758.00 753.00 Z"/>
</g>
<g fill="None" fill-opacity="0.0" stroke="#000000" stroke-opacity="0.98" stroke-width="0.3"><path d="
M 972.00 725.00 
C 945.97 747.49 900.52 726.53 881.30 759.30 C 851.91 783.12 863.74 815.73 877.00 843.00
C 904.60 790.00 963.12 825.37 1005.78 820.78 C 1053.11 801.68 990.74 750.57 972.00 725.00 Z"/>
</g>
<g fill="None" fill-opacity="0.0" stroke="#000000" stroke-opacity="0.49" stroke-width="0.3"><path d="
M 810.00 765.00 
C 817.37 777.32 836.74 781.17 849.00 790.00
C 864.23 770.17 874.33 744.08 897.00 731.00
C 874.39 739.43 863.97 769.25 849.00 788.00
C 836.06 780.64 820.51 776.24 810.00 765.00 Z"/>
</g>
<g fill="None" fill-opacity="0.0" stroke="#000000" stroke-opacity="0.98" stroke-width="0.3"><path d="
M 441.00 762.00 
C 423.08 773.39 419.72 804.56 403.92 821.92 C 398.50 839.13 370.99 885.00 398.78 884.78 C 425.66 877.49 454.40 881.10 480.98 888.02 C 522.38 898.95 595.02 925.36 613.68 873.68 C 624.06 841.11 574.73 855.19 558.23 837.77 C 518.79 813.35 490.01 765.94 441.00 762.00 Z"/>
</g>
<g fill="None" fill-opacity="0.0" stroke="#000000" stroke-opacity="0.97" stroke-width="0.3"><path d="
M 772.00 765.00 
C 732.18 754.19 736.95 787.75 752.01 810.99 C 747.83 833.71 784.60 864.42 791.00 831.00 C 795.72 808.05 794.43 777.69 772.00 765.00 Z"/>
</g>
<g fill="None" fill-opacity="0.0" stroke="#000000" stroke-opacity="0.98" stroke-width="0.3"><path d="
M 703.00 778.00 
C 697.87 785.73 682.93 790.61 688.00 802.00
C 689.73 806.06 692.25 809.51 695.00 813.00
C 695.54 814.66 697.56 815.33 698.00 817.00
C 709.94 825.64 718.32 841.96 732.00 846.00
C 774.19 838.64 729.51 793.18 726.00 770.00
C 717.64 770.54 710.15 774.21 703.00 778.00 Z"/>
</g>
<g fill="None" fill-opacity="0.0" stroke="#000000" stroke-opacity="0.98" stroke-width="0.3"><path d="
M 795.00 771.00 
C 808.15 801.50 795.81 832.38 795.03 862.98 C 811.87 870.26 841.57 840.01 849.23 820.23 C 853.06 791.94 812.99 784.57 795.00 771.00 Z"/>
</g>
<g fill="None" fill-opacity="0.0" stroke="#000000" stroke-opacity="0.66" stroke-width="0.3"><path d="
M 688.00 802.00 
C 682.93 790.61 697.87 785.73 703.00 778.00
C 697.18 784.46 679.11 792.88 688.00 802.00 Z"/>
</g>
<g fill="None" fill-opacity="0.0" stroke="#000000" stroke-opacity="0.58" stroke-width="0.3"><path d="
M 671.00 802.00 
C 680.32 809.69 686.29 820.62 696.00 828.00
C 686.74 820.52 680.30 805.78 671.00 802.00 Z"/>
</g>
<g fill="None" fill-opacity="0.0" stroke="#000000" stroke-opacity="0.97" stroke-width="0.3"><path d="
M 696.00 828.00 
C 686.29 820.62 680.32 809.69 671.00 802.00
C 655.13 812.46 629.65 830.37 630.00 853.00
C 654.40 843.98 679.13 855.49 702.00 863.00
C 720.71 852.22 708.97 838.62 696.00 828.00 Z"/>
</g>
<g fill="None" fill-opacity="0.0" stroke="#000000" stroke-opacity="0.42" stroke-width="0.3"><path d="
M 726.00 846.00 
C 717.33 835.84 706.62 827.12 698.00 817.00
C 697.56 815.33 695.54 814.66 695.00 813.00
C 701.31 824.36 715.76 835.58 726.00 846.00 Z"/>
</g>
<g fill="None" fill-opacity="0.0" stroke="#000000" stroke-opacity="0.71" stroke-width="0.3"><path d="
M 726.00 846.00 
C 726.96 847.69 730.97 847.43 732.00 846.00
C 718.32 841.96 709.94 825.64 698.00 817.00
C 706.62 827.12 717.33 835.84 726.00 846.00 Z"/>
</g>
<g fill="None" fill-opacity="0.0" stroke="#000000" stroke-opacity="0.98" stroke-width="0.3"><path d="
M 1026.00 824.00 
C 985.34 850.92 931.82 800.04 895.25 837.25 C 854.03 881.48 936.86 900.51 967.98 892.98 C 988.43 881.56 1012.48 912.83 1021.08 887.08 C 1028.48 866.91 1032.98 845.38 1026.00 824.00 Z"/>
</g>
<g fill="None" fill-opacity="0.0" stroke="#000000" stroke-opacity="0.96" stroke-width="0.3"><path d="
M 819.00 899.00 
C 837.83 899.41 853.62 887.21 868.92 876.92 C 877.50 864.55 865.54 839.04 857.00 827.00
C 847.44 848.53 828.23 868.01 805.00 874.00
C 808.14 882.98 810.82 893.26 819.00 899.00 Z"/>
</g>
<g fill="None" fill-opacity="0.0" stroke="#000000" stroke-opacity="0.99" stroke-width="0.3"><path d="
M 1003.00 949.00 
C 1062.03 937.44 1102.14 981.53 1144.92 1012.08 C 1174.41 1019.25 1204.16 1002.37 1235.00 1005.00 C 1260.90 993.21 1294.35 1035.03 1307.68 1010.68 C 1328.72 960.20 1343.10 916.15 1349.33 863.67 C 1346.79 829.90 1303.02 834.51 1278.00 832.00 C 1219.17 825.59 1172.79 886.25 1115.07 856.93 C 1049.30 839.02 1019.94 898.94 1003.00 949.00 Z"/>
</g>
<g fill="None" fill-opacity="0.0" stroke="#000000" stroke-opacity="0.95" stroke-width="0.3"><path d="
M 800.00 883.00 
C 794.07 870.24 785.17 855.31 771.00 850.00
C 761.25 872.33 774.83 895.23 800.00 883.00 Z"/>
</g>
<g fill="None" fill-opacity="0.0" stroke="#000000" stroke-opacity="0.97" stroke-width="0.3"><path d="
M 720.00 864.00 
C 727.43 869.06 732.04 878.90 741.00 881.00
C 743.34 881.20 746.03 880.41 748.00 882.00
C 756.58 878.02 754.46 865.58 761.00 861.00
C 759.16 858.07 760.32 854.34 760.00 851.00
C 745.49 853.88 731.07 857.32 716.00 858.00
C 715.76 860.77 719.15 861.65 720.00 864.00 Z"/>
</g>
<g fill="None" fill-opacity="0.0" stroke="#000000" stroke-opacity="0.98" stroke-width="0.3"><path d="
M 616.00 915.00 
C 629.52 912.81 642.94 910.12 657.00 910.00
C 668.73 908.63 680.28 911.27 689.00 904.00
C 700.28 878.18 680.02 851.89 651.00 862.00 C 620.55 857.44 618.17 893.92 616.00 915.00 Z"/>
</g>
<g fill="None" fill-opacity="0.0" stroke="#000000" stroke-opacity="0.59" stroke-width="0.3"><path d="
M 741.00 881.00 
C 732.04 878.90 727.43 869.06 720.00 864.00
C 725.67 870.15 732.24 882.08 741.00 881.00 Z"/>
</g>
<g fill="None" fill-opacity="0.0" stroke="#000000" stroke-opacity="0.53" stroke-width="0.3"><path d="
M 707.00 870.00 
C 715.28 865.66 720.85 880.41 728.00 884.00
C 723.73 878.20 711.92 862.10 707.00 870.00 Z"/>
</g>
<g fill="None" fill-opacity="0.0" stroke="#000000" stroke-opacity="0.92" stroke-width="0.3"><path d="
M 707.00 870.00 
C 704.55 873.92 701.46 877.69 700.00 882.00
C 709.95 887.40 721.13 890.28 732.00 893.00
C 732.12 889.49 729.78 886.79 728.00 884.00
C 720.85 880.41 715.28 865.66 707.00 870.00 Z"/>
</g>
<g fill="None" fill-opacity="0.0" stroke="#000000" stroke-opacity="0.99" stroke-width="0.3"><path d="
M 833.00 930.00 
C 839.99 931.00 847.55 932.33 854.00 934.00
C 868.56 934.39 865.45 912.60 873.00 906.00
C 870.60 900.11 870.96 893.52 871.00 887.00
C 855.53 895.48 840.82 908.08 822.00 908.00 C 790.27 903.08 816.12 931.61 833.00 930.00 Z"/>
</g>
<g fill="None" fill-opacity="0.0" stroke="#000000" stroke-opacity="0.94" stroke-width="0.3"><path d="
M 759.00 890.00 
C 740.79 890.13 734.59 916.59 752.00 924.00
C 767.48 917.72 762.51 902.05 759.00 890.00 Z"/>
</g>
<g fill="None" fill-opacity="0.0" stroke="#000000" stroke-opacity="0.99" stroke-width="0.3"><path d="
M 566.00 983.00 
C 577.11 974.83 586.26 962.55 598.00 955.00
C 618.60 943.98 603.07 920.94 606.00 903.00
C 568.58 919.41 524.08 913.46 487.01 899.99 C 455.02 893.36 390.99 873.41 380.33 917.33 C 373.60 958.74 377.75 1003.40 391.00 1042.00
C 441.29 992.78 505.20 998.07 566.00 983.00 Z"/>
</g>
<g fill="None" fill-opacity="0.0" stroke="#000000" stroke-opacity="0.98" stroke-width="0.3"><path d="
M 1007.00 912.00 
C 988.28 891.53 960.79 907.75 938.01 904.99 C 920.38 905.59 881.85 875.74 881.00 907.00 C 877.02 930.52 903.49 943.91 920.77 952.23 C 938.44 956.13 965.07 980.18 978.08 964.08 C 987.68 946.66 1000.61 931.61 1007.00 912.00 Z"/>
</g>
<g fill="None" fill-opacity="0.0" stroke="#000000" stroke-opacity="0.96" stroke-width="0.3"><path d="
M 802.00 900.00 
C 787.68 886.71 763.32 901.69 770.00 922.00
C 789.08 927.53 795.42 911.88 802.00 900.00 Z"/>
</g>
<g fill="None" fill-opacity="0.0" stroke="#000000" stroke-opacity="0.94" stroke-width="0.3"><path d="
M 709.00 896.00 
C 688.08 893.91 702.15 920.88 716.97 911.02 C 737.38 909.88 721.30 895.55 709.00 896.00 Z"/>
</g>
<g fill="None" fill-opacity="0.0" stroke="#000000" stroke-opacity="0.46" stroke-width="0.3"><path d="
M 616.00 915.00 
C 627.63 915.21 644.06 913.30 657.00 910.00
C 642.94 910.12 629.52 912.81 616.00 915.00 Z"/>
</g>
<g fill="None" fill-opacity="0.0" stroke="#000000" stroke-opacity="0.98" stroke-width="0.3"><path d="
M 698.00 935.00 
C 694.66 905.94 659.40 922.99 641.00 923.00 C 606.97 917.89 619.31 947.94 625.07 967.93 C 631.07 986.83 630.60 1009.97 647.00 1024.00
C 649.59 1020.29 649.17 1013.99 654.00 1013.00
C 657.33 985.86 668.11 950.35 698.00 935.00 Z"/>
</g>
<g fill="None" fill-opacity="0.0" stroke="#000000" stroke-opacity="0.98" stroke-width="0.3"><path d="
M 710.00 929.00 
C 710.30 930.25 711.83 930.71 712.00 932.00
C 712.25 932.25 712.80 932.68 713.00 933.00
C 718.47 938.13 722.13 945.95 729.00 949.00
C 729.97 947.15 730.79 944.76 733.00 944.00
C 735.23 939.87 737.04 932.76 742.00 932.00
C 742.42 917.02 699.63 915.96 710.00 929.00 Z"/>
</g>
<g fill="None" fill-opacity="0.0" stroke="#000000" stroke-opacity="0.97" stroke-width="0.3"><path d="
M 853.00 947.00 
C 832.18 939.05 811.20 925.70 788.00 929.00
C 799.17 957.93 831.34 981.48 853.00 947.00 Z"/>
</g>
<g fill="None" fill-opacity="0.0" stroke="#000000" stroke-opacity="0.41" stroke-width="0.3"><path d="
M 733.00 944.00 
C 730.79 944.76 729.97 947.15 729.00 949.00
C 722.13 945.95 718.47 938.13 713.00 933.00
C 712.79 932.73 712.21 932.31 712.00 932.00
C 711.83 930.71 710.30 930.25 710.00 929.00
C 710.53 932.45 726.65 959.15 733.00 944.00 Z"/>
</g>
<g fill="None" fill-opacity="0.0" stroke="#000000" stroke-opacity="0.49" stroke-width="0.3"><path d="
M 854.00 934.00 
C 847.55 932.33 839.99 931.00 833.00 930.00
C 832.67 931.63 848.92 935.07 854.00 934.00 Z"/>
</g>
<g fill="None" fill-opacity="0.0" stroke="#000000" stroke-opacity="0.83" stroke-width="0.3"><path d="
M 713.00 933.00 
C 712.80 932.68 712.25 932.25 712.00 932.00
C 712.21 932.31 712.79 932.73 713.00 933.00 Z"/>
</g>
<g fill="None" fill-opacity="0.0" stroke="#000000" stroke-opacity="0.93" stroke-width="0.3"><path d="
M 753.00 933.00 
C 745.23 942.67 721.63 962.56 745.77 968.23 C 768.75 983.33 760.73 943.40 753.00 933.00 Z"/>
</g>
<g fill="None" fill-opacity="0.0" stroke="#000000" stroke-opacity="0.95" stroke-width="0.3"><path d="
M 805.00 974.00 
C 799.74 959.40 784.48 928.63 766.00 937.00
C 767.72 960.29 776.31 989.48 805.00 974.00 Z"/>
</g>
<g fill="None" fill-opacity="0.0" stroke="#000000" stroke-opacity="0.98" stroke-width="0.3"><path d="
M 868.00 989.00 
C 878.34 1001.79 889.44 1014.85 902.00 1026.00
C 928.95 1047.23 944.99 999.24 962.00 984.00
C 936.28 962.17 903.00 953.82 874.00 938.00
C 854.70 952.31 850.25 972.10 868.00 989.00 Z"/>
</g>
<g fill="None" fill-opacity="0.0" stroke="#000000" stroke-opacity="0.98" stroke-width="0.3"><path d="
M 659.00 1049.00 
C 671.05 1058.29 682.44 1073.78 696.00 1077.00
C 707.14 1041.52 673.73 982.05 722.00 967.00
C 713.39 933.78 680.48 947.21 674.77 974.77 C 668.22 998.48 647.46 1024.82 659.00 1049.00 Z"/>
</g>
<g fill="None" fill-opacity="0.0" stroke="#000000" stroke-opacity="0.30" stroke-width="0.3"><path d="
M 566.00 983.00 
C 577.88 975.73 587.12 963.50 598.00 955.00
C 586.26 962.55 577.11 974.83 566.00 983.00 Z"/>
</g>
<g fill="None" fill-opacity="0.0" stroke="#000000" stroke-opacity="0.99" stroke-width="0.3"><path d="
M 482.00 1153.00 
C 484.40 1149.41 484.96 1144.27 489.00 1142.00
C 492.14 1133.73 502.95 1122.41 511.00 1120.00
C 531.82 1107.99 555.17 1099.57 573.00 1083.00
C 583.51 1071.67 594.71 1060.45 606.00 1050.00
C 643.80 1026.19 616.81 988.36 609.00 956.00
C 559.44 1025.33 463.60 989.93 403.70 1042.69 C 380.14 1056.56 408.03 1090.54 411.68 1111.32 C 417.85 1133.33 430.76 1155.12 441.75 1176.25 C 454.47 1211.66 473.46 1168.73 482.00 1153.00 Z"/>
</g>
<g fill="None" fill-opacity="0.0" stroke="#000000" stroke-opacity="0.99" stroke-width="0.3"><path d="
M 1122.00 1011.00 
C 1110.41 1002.46 1100.66 990.44 1090.00 981.00
C 1066.46 960.39 1034.29 957.67 1003.02 959.02 C 978.63 968.21 972.48 1000.22 953.00 1017.00
C 1053.90 1030.21 1068.53 1164.69 1168.98 1177.03 C 1200.64 1198.21 1225.51 1160.70 1241.74 1137.74 C 1257.90 1112.58 1273.36 1084.91 1286.09 1059.10 C 1315.43 1022.71 1254.51 1013.03 1226.00 1016.00 C 1191.13 1013.37 1151.65 1037.44 1122.00 1011.00 Z"/>
</g>
<g fill="None" fill-opacity="0.0" stroke="#000000" stroke-opacity="0.98" stroke-width="0.3"><path d="
M 823.00 1044.00 
C 834.43 1054.24 845.12 1065.56 855.00 1077.00
C 877.14 1077.93 894.34 1057.35 909.00 1042.00
C 879.71 1027.27 859.47 999.66 841.75 973.25 C 799.90 968.79 790.51 1020.66 823.00 1044.00 Z"/>
</g>
<g fill="None" fill-opacity="0.0" stroke="#000000" stroke-opacity="0.97" stroke-width="0.3"><path d="
M 737.00 975.00 
C 709.05 971.32 702.77 1001.13 706.33 1022.33 C 710.68 1044.25 699.83 1076.60 715.98 1092.02 C 730.34 1092.39 771.97 1109.94 767.32 1087.68 C 761.35 1067.71 751.39 1049.14 746.00 1029.00 C 732.99 1009.98 764.37 975.65 737.00 975.00 Z"/>
</g>
<g fill="None" fill-opacity="0.0" stroke="#000000" stroke-opacity="0.40" stroke-width="0.3"><path d="
M 1090.00 981.00 
C 1100.66 990.44 1110.41 1002.46 1122.00 1011.00
C 1111.96 1001.12 1101.14 987.12 1090.00 981.00 Z"/>
</g>
<g fill="None" fill-opacity="0.0" stroke="#000000" stroke-opacity="0.98" stroke-width="0.3"><path d="
M 792.00 988.00 
C 723.50 973.16 767.63 1056.97 777.01 1088.99 C 789.07 1109.98 819.12 1086.24 838.99 1086.99 C 855.34 1075.70 817.45 1059.31 810.30 1045.70 C 796.66 1029.27 788.65 1009.15 792.00 988.00 Z"/>
</g>
<g fill="None" fill-opacity="0.0" stroke="#000000" stroke-opacity="0.65" stroke-width="0.3"><path d="
M 902.00 1026.00 
C 889.44 1014.85 878.34 1001.79 868.00 989.00
C 877.38 1002.41 888.37 1016.14 902.00 1026.00 Z"/>
</g>
<g fill="None" fill-opacity="0.0" stroke="#000000" stroke-opacity="0.99" stroke-width="0.3"><path d="
M 907.00 1060.00 
C 912.99 1066.65 919.21 1075.79 923.00 1082.00
C 969.89 1132.43 952.10 1211.20 1000.75 1260.25 C 1018.23 1289.01 1044.80 1312.77 1075.31 1284.31 C 1102.96 1269.47 1130.19 1255.89 1155.00 1238.00
C 1168.39 1225.44 1185.03 1213.66 1195.00 1198.00
C 1170.17 1181.80 1130.52 1176.26 1102.08 1157.92 C 1070.52 1144.44 1064.48 1107.98 1044.00 1084.00
C 1038.52 1079.98 1034.44 1073.97 1029.00 1070.00
C 995.48 1034.37 940.97 1010.67 907.00 1060.00 Z"/>
</g>
<g fill="None" fill-opacity="0.0" stroke="#000000" stroke-opacity="0.99" stroke-width="0.3"><path d="
M 616.00 1207.00 
C 625.68 1196.92 636.87 1187.45 646.00 1177.00
C 671.97 1141.49 691.74 1083.54 649.31 1050.70 C 638.50 1018.35 618.44 1044.98 605.25 1061.25 C 593.02 1078.99 579.15 1097.13 558.69 1105.70 C 512.68 1118.11 490.73 1159.31 464.75 1194.75 C 467.78 1235.97 509.25 1273.12 544.31 1294.70 C 575.42 1317.57 560.40 1270.74 574.08 1256.08 C 584.31 1237.50 599.86 1221.72 616.00 1207.00 Z"/>
</g>
<g fill="None" fill-opacity="0.0" stroke="#000000" stroke-opacity="0.46" stroke-width="0.3"><path d="
M 855.00 1077.00 
C 845.12 1065.56 834.43 1054.24 823.00 1044.00
C 832.03 1055.97 844.10 1066.43 855.00 1077.00 Z"/>
</g>
<g fill="None" fill-opacity="0.0" stroke="#000000" stroke-opacity="0.41" stroke-width="0.3"><path d="
M 696.00 1077.00 
C 682.44 1073.78 671.05 1058.29 659.00 1049.00
C 667.68 1062.17 683.10 1069.96 694.00 1081.00
C 695.35 1080.34 695.84 1078.41 696.00 1077.00 Z"/>
</g>
<g fill="None" fill-opacity="0.0" stroke="#000000" stroke-opacity="0.55" stroke-width="0.3"><path d="
M 573.00 1083.00 
C 585.61 1074.18 596.71 1062.29 606.00 1050.00
C 594.71 1060.45 583.51 1071.67 573.00 1083.00 Z"/>
</g>
<g fill="None" fill-opacity="0.0" stroke="#000000" stroke-opacity="0.55" stroke-width="0.3"><path d="
M 923.00 1082.00 
C 919.21 1075.79 912.99 1066.65 907.00 1060.00
C 909.23 1066.76 917.39 1075.16 923.00 1082.00 Z"/>
</g>
<g fill="None" fill-opacity="0.0" stroke="#000000" stroke-opacity="0.35" stroke-width="0.3"><path d="
M 1029.00 1070.00 
C 1034.44 1073.97 1038.52 1079.98 1044.00 1084.00
C 1039.54 1077.26 1032.80 1070.20 1026.00 1066.00
C 1026.44 1067.67 1028.46 1068.34 1029.00 1070.00 Z"/>
</g>
<g fill="None" fill-opacity="0.0" stroke="#000000" stroke-opacity="0.99" stroke-width="0.3"><path d="
M 858.00 1238.00 
C 858.00 1244.33 858.00 1250.67 858.00 1257.00
C 862.95 1287.08 876.07 1314.67 885.69 1343.31 C 897.68 1375.19 938.82 1342.09 959.78 1340.78 C 981.76 1330.50 1018.78 1326.82 1033.00 1307.00
C 1023.76 1297.92 1011.25 1287.42 1005.00 1278.00
C 1003.58 1275.24 1000.35 1273.73 999.00 1271.00
C 993.54 1265.46 989.10 1258.89 983.00 1254.00
C 977.18 1248.06 969.35 1239.44 969.00 1232.00
C 949.16 1176.77 950.44 1108.51 896.00 1069.00
C 878.10 1093.67 820.09 1089.48 851.70 1129.31 C 866.75 1162.89 861.30 1201.96 858.00 1238.00 Z"/>
</g>
<g fill="None" fill-opacity="0.0" stroke="#000000" stroke-opacity="0.98" stroke-width="0.3"><path d="
M 685.00 1099.00 
C 686.61 1103.26 686.70 1110.81 685.00 1115.00
C 680.33 1154.78 657.89 1191.77 624.25 1215.25 C 598.78 1237.57 553.35 1282.95 585.77 1312.23 C 621.70 1332.45 659.39 1350.81 700.00 1358.00
C 709.68 1356.32 722.01 1356.36 732.00 1358.00
C 732.00 1356.00 732.00 1354.00 732.00 1352.00
C 728.79 1346.80 728.91 1334.66 730.00 1328.00
C 721.13 1260.64 750.99 1206.53 748.00 1141.00 C 758.76 1095.26 706.38 1109.97 684.00 1089.00
C 683.77 1092.51 685.71 1095.39 685.00 1099.00 Z"/>
</g>
<g fill="None" fill-opacity="0.0" stroke="#000000" stroke-opacity="0.60" stroke-width="0.3"><path d="
M 685.00 1115.00 
C 686.70 1110.81 686.61 1103.26 685.00 1099.00
C 683.24 1103.28 683.47 1110.31 685.00 1115.00 Z"/>
</g>
<g fill="None" fill-opacity="0.0" stroke="#000000" stroke-opacity="0.99" stroke-width="0.3"><path d="
M 757.00 1108.00 
C 757.00 1120.00 757.00 1132.00 757.00 1144.00
C 760.01 1216.69 718.33 1288.45 746.00 1359.00
C 756.25 1362.25 766.03 1361.03 777.00 1361.00
C 803.45 1359.81 831.99 1359.00 858.00 1361.00
C 866.29 1360.79 873.63 1361.96 881.00 1360.00
C 868.06 1326.73 850.08 1293.50 847.00 1257.00
C 845.91 1246.82 844.14 1232.59 848.00 1223.00
C 853.34 1189.79 852.78 1155.55 839.32 1124.68 C 834.11 1081.46 785.55 1124.81 757.00 1108.00 Z"/>
</g>
<g fill="None" fill-opacity="0.0" stroke="#000000" stroke-opacity="0.65" stroke-width="0.3"><path d="
M 757.00 1144.00 
C 757.00 1132.00 757.00 1120.00 757.00 1108.00
C 755.33 1118.86 755.34 1133.07 757.00 1144.00 Z"/>
</g>
<g fill="None" fill-opacity="0.0" stroke="#000000" stroke-opacity="0.60" stroke-width="0.3"><path d="
M 489.00 1142.00 
C 494.20 1135.10 502.97 1126.08 511.00 1120.00
C 502.95 1122.41 492.14 1133.73 489.00 1142.00 Z"/>
</g>
<g fill="None" fill-opacity="0.0" stroke="#070707" stroke-opacity="0.33" stroke-width="0.3"><path d="
M 482.00 1153.00 
C 485.20 1150.00 487.91 1145.23 489.00 1142.00
C 484.96 1144.27 484.40 1149.41 482.00 1153.00 Z"/>
</g>
<g fill="None" fill-opacity="0.0" stroke="#000000" stroke-opacity="0.28" stroke-width="0.3"><path d="
M 616.00 1207.00 
C 626.39 1197.80 637.82 1188.39 646.00 1177.00
C 636.87 1187.45 625.68 1196.92 616.00 1207.00 Z"/>
</g>
<g fill="None" fill-opacity="0.0" stroke="#000000" stroke-opacity="0.33" stroke-width="0.3"><path d="
M 1155.00 1238.00 
C 1169.31 1226.67 1186.00 1214.13 1195.00 1198.00
C 1185.03 1213.66 1168.39 1225.44 1155.00 1238.00 Z"/>
</g>
<g fill="None" fill-opacity="0.0" stroke="#0B0B0B" stroke-opacity="0.33" stroke-width="0.3"><path d="
M 847.00 1257.00 
C 847.84 1245.49 846.85 1233.85 848.00 1223.00
C 844.14 1232.59 845.91 1246.82 847.00 1257.00 Z"/>
</g>
<g fill="None" fill-opacity="0.0" stroke="#000000" stroke-opacity="0.53" stroke-width="0.3"><path d="
M 983.00 1254.00 
C 978.51 1246.55 972.19 1240.25 969.00 1232.00
C 969.35 1239.44 977.18 1248.06 983.00 1254.00 Z"/>
</g>
<g fill="None" fill-opacity="0.0" stroke="#000000" stroke-opacity="0.60" stroke-width="0.3"><path d="
M 858.00 1257.00 
C 858.00 1250.67 858.00 1244.33 858.00 1238.00
C 855.57 1243.02 854.35 1252.10 858.00 1257.00 Z"/>
</g>
<g fill="None" fill-opacity="0.0" stroke="#000000" stroke-opacity="0.14" stroke-width="0.3"><path d="
M 1005.00 1278.00 
C 1014.83 1286.34 1023.22 1296.71 1033.00 1305.00
C 1022.22 1293.38 1010.66 1281.84 999.00 1271.00
C 1000.35 1273.73 1003.58 1275.24 1005.00 1278.00 Z"/>
</g>
<g fill="None" fill-opacity="0.0" stroke="#000000" stroke-opacity="0.67" stroke-width="0.3"><path d="
M 1033.00 1307.00 
C 1032.80 1306.60 1033.15 1305.45 1033.00 1305.00
C 1023.22 1296.71 1014.83 1286.34 1005.00 1278.00
C 1011.25 1287.42 1023.76 1297.92 1033.00 1307.00 Z"/>
</g>
<g fill="None" fill-opacity="0.0" stroke="#000000" stroke-opacity="0.55" stroke-width="0.3"><path d="
M 732.00 1352.00 
C 732.03 1344.47 730.66 1336.00 730.00 1328.00
C 728.91 1334.66 728.79 1346.80 732.00 1352.00 Z"/>
</g>
<g fill="None" fill-opacity="0.0" stroke="#000000" stroke-opacity="0.55" stroke-width="0.3"><path d="
M 700.00 1358.00 
C 709.71 1359.65 723.24 1359.94 732.00 1358.00
C 722.01 1356.36 709.68 1356.32 700.00 1358.00 Z"/>
</g>
<g fill="None" fill-opacity="0.0" stroke="#000000" stroke-opacity="0.63" stroke-width="0.3"><path d="
M 777.00 1361.00 
C 783.18 1363.26 790.23 1362.19 797.00 1362.00
C 815.09 1359.67 835.15 1361.66 854.00 1361.00
C 855.33 1361.00 856.67 1361.00 858.00 1361.00
C 831.99 1359.00 803.45 1359.81 777.00 1361.00 Z"/>
</g>
<g fill="None" fill-opacity="0.0" stroke="#000000" stroke-opacity="0.31" stroke-width="0.3"><path d="
M 797.00 1362.00 
C 815.00 1361.06 840.81 1363.72 854.00 1361.00
C 835.15 1361.66 815.09 1359.67 797.00 1362.00 Z"/>
</g>
<g fill="#000000" fill-opacity="0.00" stroke="None"><path d="
M 0.00 1600.00 
L 1600.00 1600.00
L 1600.00 0.00
L 0.00 0.00
L 0.00 1600.00
M 730.00 181.00 
C 758.81 184.11 787.73 187.37 815.08 195.92 C 833.65 205.32 885.86 201.22 873.23 231.23 C 854.05 303.00 856.85 383.34 806.70 446.70 C 792.67 471.12 793.79 497.11 791.00 524.00
C 791.00 536.67 791.00 549.33 791.00 562.00
C 792.96 577.51 793.67 592.05 794.00 608.00
C 769.74 601.27 745.95 590.39 720.00 590.00 C 691.36 603.53 678.42 580.15 670.68 555.32 C 661.42 530.52 654.59 504.76 652.00 478.00
C 649.21 472.79 648.30 458.03 652.00 456.00
C 664.78 403.05 658.43 350.06 639.67 300.33 C 625.39 257.69 612.37 172.23 683.00 181.00
C 696.66 177.32 715.99 178.17 730.00 181.00
M 443.00 409.00 
C 430.67 400.63 421.90 388.27 413.00 377.00
C 385.24 342.48 355.57 263.37 424.02 257.02 C 472.10 239.73 521.02 224.19 569.22 207.22 C 587.68 203.69 637.72 175.41 619.07 213.07 C 611.82 295.42 670.29 367.76 642.00 448.00 C 639.95 497.27 652.58 550.87 681.00 593.00
C 652.94 599.88 617.27 601.33 589.31 618.31 C 559.78 641.40 538.19 595.56 523.08 575.92 C 489.98 523.10 491.56 453.74 443.00 409.00
M 1032.00 272.00 
C 1043.43 277.97 1055.51 282.98 1066.00 290.00
C 1070.16 291.74 1073.90 294.47 1078.00 296.00
C 1035.26 338.25 1032.41 401.99 989.25 446.25 C 940.18 483.95 894.47 521.96 896.00 585.00
C 896.09 595.68 896.42 606.33 896.00 617.00
C 895.22 626.18 899.69 634.21 898.00 643.00
C 864.75 619.96 790.20 631.58 800.00 574.00
C 797.92 571.90 799.50 567.85 799.00 565.00
C 797.34 553.07 797.33 537.86 799.00 526.00
C 799.28 524.72 798.24 522.50 800.00 522.00
C 798.00 468.40 830.15 425.93 852.77 380.77 C 876.71 332.18 861.08 269.43 890.08 224.08 C 940.17 222.74 985.85 254.62 1032.00 272.00
M 402.00 381.00 
C 410.68 390.86 421.30 400.49 429.00 411.00
C 470.06 437.35 473.56 486.46 488.99 526.01 C 503.79 566.55 532.24 600.69 557.00 635.00
C 516.57 660.47 477.80 690.38 440.00 719.00
C 429.00 708.83 418.12 697.96 408.00 687.00
C 399.51 679.99 392.45 670.96 384.00 664.00
C 363.33 644.17 342.79 623.62 323.00 603.00
C 314.65 593.93 306.13 585.14 298.00 576.00
C 295.13 571.88 290.67 568.61 289.00 564.00
C 278.93 554.79 268.60 544.79 261.00 534.00
C 235.06 501.93 206.32 471.68 185.08 436.92 C 192.72 395.25 248.32 385.79 272.25 351.25 C 304.93 326.09 334.62 294.67 372.00 278.00
C 368.93 314.95 382.07 350.22 402.00 381.00
M 1158.00 341.00 
C 1157.43 340.06 1156.85 339.18 1157.00 338.00
C 1168.21 347.97 1178.80 358.91 1187.00 371.00
C 1198.89 385.35 1209.96 400.08 1221.30 414.70 C 1233.23 428.98 1255.28 451.57 1223.26 449.26 C 1146.12 461.83 1133.23 574.68 1058.77 590.77 C 1040.34 597.34 1024.63 608.24 1009.00 618.00
C 997.33 627.99 985.47 639.63 975.00 651.00
C 963.10 667.26 954.02 693.25 935.30 668.70 C 878.15 628.45 905.53 532.88 949.75 490.75 C 1007.74 459.46 1034.48 401.25 1056.31 343.31 C 1072.48 291.42 1130.79 308.46 1158.00 341.00
M 995.00 738.00 
C 989.33 734.37 981.07 721.28 984.00 719.00
C 947.24 686.42 987.39 647.13 1018.08 627.08 C 1070.32 600.86 1125.40 574.55 1152.25 518.25 C 1174.24 487.68 1208.83 448.95 1249.25 458.75 C 1290.56 506.52 1304.82 569.66 1316.99 630.01 C 1312.86 650.08 1270.46 630.33 1253.97 642.02 C 1196.61 661.09 1151.29 716.55 1084.33 713.33 C 1064.58 717.40 1046.47 727.33 1031.75 741.75 C 1017.48 764.40 1005.41 759.84 995.00 738.00
M 744.00 749.00 
C 714.63 779.60 681.10 748.43 667.08 717.92 C 649.19 685.49 658.15 643.87 634.00 614.00
C 662.89 605.41 693.99 604.54 725.00 604.00 C 759.04 599.86 754.92 648.89 755.78 670.22 C 745.98 696.24 740.19 720.62 744.00 749.00
M 758.00 753.00 
C 745.72 752.33 751.17 734.02 750.00 725.00
C 751.67 725.24 750.17 727.85 752.00 728.00
C 758.40 687.71 771.46 646.66 754.00 607.00
C 789.59 619.42 881.00 619.22 851.08 675.08 C 819.95 705.34 813.59 776.99 758.00 753.00
M 633.00 637.00 
C 644.76 686.49 656.44 734.49 694.00 772.00
C 674.70 782.02 651.06 819.75 627.77 794.23 C 606.91 776.00 587.27 754.97 579.00 729.00
C 564.85 706.89 554.92 678.92 531.00 664.00
C 532.22 660.65 534.90 662.20 537.00 660.00
C 561.43 645.85 586.15 629.80 612.00 619.00
C 622.47 615.28 628.13 630.01 633.00 637.00
M 932.00 673.00 
C 939.64 687.43 972.68 703.60 961.00 718.00
C 942.43 732.72 915.93 724.99 897.00 731.00
C 874.33 744.08 864.23 770.17 849.00 790.00
C 836.74 781.17 817.37 777.32 810.00 765.00
C 817.08 720.68 868.78 692.82 867.00 644.00
C 890.08 649.17 912.51 659.02 932.00 673.00
M 1040.00 860.00 
C 1037.31 835.60 1044.34 809.13 1032.07 786.93 C 1006.08 741.93 1083.16 722.95 1116.67 721.67 C 1182.54 714.48 1224.27 644.36 1294.00 648.00 C 1347.26 654.72 1333.91 722.13 1346.98 760.02 C 1348.08 783.68 1352.20 803.74 1351.00 828.00 C 1348.87 851.87 1317.98 810.34 1299.33 818.33 C 1230.80 802.46 1173.82 879.31 1104.00 846.00 C 1080.16 841.17 1059.43 850.71 1040.00 860.00
M 638.00 812.00 
C 625.70 864.20 570.29 838.85 541.92 814.08 C 513.93 784.13 480.27 761.98 442.00 752.00
C 455.70 714.60 514.64 651.72 550.75 698.25 C 574.12 738.79 593.59 789.71 638.00 812.00
M 972.00 725.00 
C 990.74 750.57 1053.11 801.68 1005.78 820.78 C 963.12 825.37 904.60 790.00 877.00 843.00
C 863.74 815.73 851.91 783.12 881.30 759.30 C 900.52 726.53 945.97 747.49 972.00 725.00
M 441.00 762.00 
C 490.01 765.94 518.79 813.35 558.23 837.77 C 574.73 855.19 624.06 841.11 613.68 873.68 C 595.02 925.36 522.38 898.95 480.98 888.02 C 454.40 881.10 425.66 877.49 398.78 884.78 C 370.99 885.00 398.50 839.13 403.92 821.92 C 419.72 804.56 423.08 773.39 441.00 762.00
M 772.00 765.00 
C 794.43 777.69 795.72 808.05 791.00 831.00 C 784.60 864.42 747.83 833.71 752.01 810.99 C 736.95 787.75 732.18 754.19 772.00 765.00
M 732.00 846.00 
C 730.97 847.43 726.96 847.69 726.00 846.00
C 715.76 835.58 701.31 824.36 695.00 813.00
C 692.25 809.51 689.73 806.06 688.00 802.00
C 679.11 792.88 697.18 784.46 703.00 778.00
C 710.15 774.21 717.64 770.54 726.00 770.00
C 729.51 793.18 774.19 838.64 732.00 846.00
M 795.00 771.00 
C 812.99 784.57 853.06 791.94 849.23 820.23 C 841.57 840.01 811.87 870.26 795.03 862.98 C 795.81 832.38 808.15 801.50 795.00 771.00
M 696.00 828.00 
C 708.97 838.62 720.71 852.22 702.00 863.00
C 679.13 855.49 654.40 843.98 630.00 853.00
C 629.65 830.37 655.13 812.46 671.00 802.00
C 680.30 805.78 686.74 820.52 696.00 828.00
M 1026.00 824.00 
C 1032.98 845.38 1028.48 866.91 1021.08 887.08 C 1012.48 912.83 988.43 881.56 967.98 892.98 C 936.86 900.51 854.03 881.48 895.25 837.25 C 931.82 800.04 985.34 850.92 1026.00 824.00
M 819.00 899.00 
C 810.82 893.26 808.14 882.98 805.00 874.00
C 828.23 868.01 847.44 848.53 857.00 827.00
C 865.54 839.04 877.50 864.55 868.92 876.92 C 853.62 887.21 837.83 899.41 819.00 899.00
M 1003.00 949.00 
C 1019.94 898.94 1049.30 839.02 1115.07 856.93 C 1172.79 886.25 1219.17 825.59 1278.00 832.00 C 1303.02 834.51 1346.79 829.90 1349.33 863.67 C 1343.10 916.15 1328.72 960.20 1307.68 1010.68 C 1294.35 1035.03 1260.90 993.21 1235.00 1005.00 C 1204.16 1002.37 1174.41 1019.25 1144.92 1012.08 C 1102.14 981.53 1062.03 937.44 1003.00 949.00
M 800.00 883.00 
C 774.83 895.23 761.25 872.33 771.00 850.00
C 785.17 855.31 794.07 870.24 800.00 883.00
M 741.00 881.00 
C 732.24 882.08 725.67 870.15 720.00 864.00
C 719.15 861.65 715.76 860.77 716.00 858.00
C 731.07 857.32 745.49 853.88 760.00 851.00
C 760.32 854.34 759.16 858.07 761.00 861.00
C 754.46 865.58 756.58 878.02 748.00 882.00
C 746.03 880.41 743.34 881.20 741.00 881.00
M 657.00 910.00 
C 644.06 913.30 627.63 915.21 616.00 915.00
C 618.17 893.92 620.55 857.44 651.00 862.00 C 680.02 851.89 700.28 878.18 689.00 904.00
C 680.28 911.27 668.73 908.63 657.00 910.00
M 728.00 884.00 
C 729.78 886.79 732.12 889.49 732.00 893.00
C 721.13 890.28 709.95 887.40 700.00 882.00
C 701.46 877.69 704.55 873.92 707.00 870.00
C 711.92 862.10 723.73 878.20 728.00 884.00
M 854.00 934.00 
C 848.92 935.07 832.67 931.63 833.00 930.00
C 816.12 931.61 790.27 903.08 822.00 908.00 C 840.82 908.08 855.53 895.48 871.00 887.00
C 870.96 893.52 870.60 900.11 873.00 906.00
C 865.45 912.60 868.56 934.39 854.00 934.00
M 759.00 890.00 
C 762.51 902.05 767.48 917.72 752.00 924.00
C 734.59 916.59 740.79 890.13 759.00 890.00
M 598.00 955.00 
C 587.12 963.50 577.88 975.73 566.00 983.00
C 505.20 998.07 441.29 992.78 391.00 1042.00
C 377.75 1003.40 373.60 958.74 380.33 917.33 C 390.99 873.41 455.02 893.36 487.01 899.99 C 524.08 913.46 568.58 919.41 606.00 903.00
C 603.07 920.94 618.60 943.98 598.00 955.00
M 1007.00 912.00 
C 1000.61 931.61 987.68 946.66 978.08 964.08 C 965.07 980.18 938.44 956.13 920.77 952.23 C 903.49 943.91 877.02 930.52 881.00 907.00 C 881.85 875.74 920.38 905.59 938.01 904.99 C 960.79 907.75 988.28 891.53 1007.00 912.00
M 802.00 900.00 
C 795.42 911.88 789.08 927.53 770.00 922.00
C 763.32 901.69 787.68 886.71 802.00 900.00
M 709.00 896.00 
C 721.30 895.55 737.38 909.88 716.97 911.02 C 702.15 920.88 688.08 893.91 709.00 896.00
M 698.00 935.00 
C 668.11 950.35 657.33 985.86 654.00 1013.00
C 649.17 1013.99 649.59 1020.29 647.00 1024.00
C 630.60 1009.97 631.07 986.83 625.07 967.93 C 619.31 947.94 606.97 917.89 641.00 923.00 C 659.40 922.99 694.66 905.94 698.00 935.00
M 733.00 944.00 
C 726.65 959.15 710.53 932.45 710.00 929.00
C 699.63 915.96 742.42 917.02 742.00 932.00
C 737.04 932.76 735.23 939.87 733.00 944.00
M 853.00 947.00 
C 831.34 981.48 799.17 957.93 788.00 929.00
C 811.20 925.70 832.18 939.05 853.00 947.00
M 753.00 933.00 
C 760.73 943.40 768.75 983.33 745.77 968.23 C 721.63 962.56 745.23 942.67 753.00 933.00
M 805.00 974.00 
C 776.31 989.48 767.72 960.29 766.00 937.00
C 784.48 928.63 799.74 959.40 805.00 974.00
M 902.00 1026.00 
C 888.37 1016.14 877.38 1002.41 868.00 989.00
C 850.25 972.10 854.70 952.31 874.00 938.00
C 903.00 953.82 936.28 962.17 962.00 984.00
C 944.99 999.24 928.95 1047.23 902.00 1026.00
M 696.00 1077.00 
C 695.84 1078.41 695.35 1080.34 694.00 1081.00
C 683.10 1069.96 667.68 1062.17 659.00 1049.00
C 647.46 1024.82 668.22 998.48 674.77 974.77 C 680.48 947.21 713.39 933.78 722.00 967.00
C 673.73 982.05 707.14 1041.52 696.00 1077.00
M 606.00 1050.00 
C 596.71 1062.29 585.61 1074.18 573.00 1083.00
C 555.17 1099.57 531.82 1107.99 511.00 1120.00
C 502.97 1126.08 494.20 1135.10 489.00 1142.00
C 487.91 1145.23 485.20 1150.00 482.00 1153.00
C 473.46 1168.73 454.47 1211.66 441.75 1176.25 C 430.76 1155.12 417.85 1133.33 411.68 1111.32 C 408.03 1090.54 380.14 1056.56 403.70 1042.69 C 463.60 989.93 559.44 1025.33 609.00 956.00
C 616.81 988.36 643.80 1026.19 606.00 1050.00
M 1090.00 981.00 
C 1101.14 987.12 1111.96 1001.12 1122.00 1011.00
C 1151.65 1037.44 1191.13 1013.37 1226.00 1016.00 C 1254.51 1013.03 1315.43 1022.71 1286.09 1059.10 C 1273.36 1084.91 1257.90 1112.58 1241.74 1137.74 C 1225.51 1160.70 1200.64 1198.21 1168.98 1177.03 C 1068.53 1164.69 1053.90 1030.21 953.00 1017.00
C 972.48 1000.22 978.63 968.21 1003.02 959.02 C 1034.29 957.67 1066.46 960.39 1090.00 981.00
M 855.00 1077.00 
C 844.10 1066.43 832.03 1055.97 823.00 1044.00
C 790.51 1020.66 799.90 968.79 841.75 973.25 C 859.47 999.66 879.71 1027.27 909.00 1042.00
C 894.34 1057.35 877.14 1077.93 855.00 1077.00
M 737.00 975.00 
C 764.37 975.65 732.99 1009.98 746.00 1029.00 C 751.39 1049.14 761.35 1067.71 767.32 1087.68 C 771.97 1109.94 730.34 1092.39 715.98 1092.02 C 699.83 1076.60 710.68 1044.25 706.33 1022.33 C 702.77 1001.13 709.05 971.32 737.00 975.00
M 792.00 988.00 
C 788.65 1009.15 796.66 1029.27 810.30 1045.70 C 817.45 1059.31 855.34 1075.70 838.99 1086.99 C 819.12 1086.24 789.07 1109.98 777.01 1088.99 C 767.63 1056.97 723.50 973.16 792.00 988.00
M 1029.00 1070.00 
C 1028.46 1068.34 1026.44 1067.67 1026.00 1066.00
C 1032.80 1070.20 1039.54 1077.26 1044.00 1084.00
C 1064.48 1107.98 1070.52 1144.44 1102.08 1157.92 C 1130.52 1176.26 1170.17 1181.80 1195.00 1198.00
C 1186.00 1214.13 1169.31 1226.67 1155.00 1238.00
C 1130.19 1255.89 1102.96 1269.47 1075.31 1284.31 C 1044.80 1312.77 1018.23 1289.01 1000.75 1260.25 C 952.10 1211.20 969.89 1132.43 923.00 1082.00
C 917.39 1075.16 909.23 1066.76 907.00 1060.00
C 940.97 1010.67 995.48 1034.37 1029.00 1070.00
M 646.00 1177.00 
C 637.82 1188.39 626.39 1197.80 616.00 1207.00
C 599.86 1221.72 584.31 1237.50 574.08 1256.08 C 560.40 1270.74 575.42 1317.57 544.31 1294.70 C 509.25 1273.12 467.78 1235.97 464.75 1194.75 C 490.73 1159.31 512.68 1118.11 558.69 1105.70 C 579.15 1097.13 593.02 1078.99 605.25 1061.25 C 618.44 1044.98 638.50 1018.35 649.31 1050.70 C 691.74 1083.54 671.97 1141.49 646.00 1177.00
M 969.00 1232.00 
C 972.19 1240.25 978.51 1246.55 983.00 1254.00
C 989.10 1258.89 993.54 1265.46 999.00 1271.00
C 1010.66 1281.84 1022.22 1293.38 1033.00 1305.00
C 1033.15 1305.45 1032.80 1306.60 1033.00 1307.00
C 1018.78 1326.82 981.76 1330.50 959.78 1340.78 C 938.82 1342.09 897.68 1375.19 885.69 1343.31 C 876.07 1314.67 862.95 1287.08 858.00 1257.00
C 854.35 1252.10 855.57 1243.02 858.00 1238.00
C 861.30 1201.96 866.75 1162.89 851.70 1129.31 C 820.09 1089.48 878.10 1093.67 896.00 1069.00
C 950.44 1108.51 949.16 1176.77 969.00 1232.00
M 730.00 1328.00 
C 730.66 1336.00 732.03 1344.47 732.00 1352.00
C 732.00 1354.00 732.00 1356.00 732.00 1358.00
C 723.24 1359.94 709.71 1359.65 700.00 1358.00
C 659.39 1350.81 621.70 1332.45 585.77 1312.23 C 553.35 1282.95 598.78 1237.57 624.25 1215.25 C 657.89 1191.77 680.33 1154.78 685.00 1115.00
C 683.47 1110.31 683.24 1103.28 685.00 1099.00
C 685.71 1095.39 683.77 1092.51 684.00 1089.00
C 706.38 1109.97 758.76 1095.26 748.00 1141.00 C 750.99 1206.53 721.13 1260.64 730.00 1328.00
M 848.00 1223.00 
C 846.85 1233.85 847.84 1245.49 847.00 1257.00
C 850.08 1293.50 868.06 1326.73 881.00 1360.00
C 873.63 1361.96 866.29 1360.79 858.00 1361.00
C 856.67 1361.00 855.33 1361.00 854.00 1361.00
C 840.81 1363.72 815.00 1361.06 797.00 1362.00
C 790.23 1362.19 783.18 1363.26 777.00 1361.00
C 766.03 1361.03 756.25 1362.25 746.00 1359.00
C 718.33 1288.45 760.01 1216.69 757.00 1144.00
C 755.34 1133.07 755.33 1118.86 757.00 1108.00
C 785.55 1124.81 834.11 1081.46 839.32 1124.68 C 852.78 1155.55 853.34 1189.79 848.00 1223.00 Z"/>
</g>
<g fill="#000000" fill-opacity="0.22" stroke="None"><path d="
M 683.00 181.00 
C 684.33 181.00 685.67 181.00 687.00 181.00
C 697.59 179.34 711.48 179.33 722.00 181.00
C 724.67 181.00 727.33 181.00 730.00 181.00
C 715.99 178.17 696.66 177.32 683.00 181.00 Z"/>
</g>
<g fill="#000000" fill-opacity="0.72" stroke="None"><path d="
M 687.00 181.00 
C 698.67 181.00 710.33 181.00 722.00 181.00
C 711.48 179.33 697.59 179.34 687.00 181.00 Z"/>
</g>
<g fill="#000000" fill-opacity="0.99" stroke="None"><path d="
M 652.00 456.00 
C 652.00 463.33 652.00 470.67 652.00 478.00
C 654.59 504.76 661.42 530.52 670.68 555.32 C 678.42 580.15 691.36 603.53 720.00 590.00 C 745.95 590.39 769.74 601.27 794.00 608.00
C 793.67 592.05 792.96 577.51 791.00 562.00
C 789.34 550.87 789.33 532.86 791.00 524.00
C 793.79 497.11 792.67 471.12 806.70 446.70 C 856.85 383.34 854.05 303.00 873.23 231.23 C 885.86 201.22 833.65 205.32 815.08 195.92 C 787.73 187.37 758.81 184.11 730.00 181.00
C 727.33 181.00 724.67 181.00 722.00 181.00
C 710.33 181.00 698.67 181.00 687.00 181.00
C 685.67 181.00 684.33 181.00 683.00 181.00
C 612.37 172.23 625.39 257.69 639.67 300.33 C 658.43 350.06 664.78 403.05 652.00 456.00 Z"/>
</g>
<g fill="#000000" fill-opacity="0.99" stroke="None"><path d="
M 413.00 377.00 
C 422.83 387.47 432.78 398.53 443.00 409.00
C 491.56 453.74 489.98 523.10 523.08 575.92 C 538.19 595.56 559.78 641.40 589.31 618.31 C 617.27 601.33 652.94 599.88 681.00 593.00
C 652.58 550.87 639.95 497.27 642.00 448.00 C 670.29 367.76 611.82 295.42 619.07 213.07 C 637.72 175.41 587.68 203.69 569.22 207.22 C 521.02 224.19 472.10 239.73 424.02 257.02 C 355.57 263.37 385.24 342.48 413.00 377.00 Z"/>
</g>
<g fill="#000000" fill-opacity="0.99" stroke="None"><path d="
M 800.00 522.00 
C 800.00 539.33 800.00 556.67 800.00 574.00
C 790.20 631.58 864.75 619.96 898.00 643.00
C 899.69 634.21 895.22 626.18 896.00 617.00
C 894.35 607.41 894.32 594.52 896.00 585.00
C 894.47 521.96 940.18 483.95 989.25 446.25 C 1032.41 401.99 1035.26 338.25 1078.00 296.00
C 1073.90 294.47 1070.16 291.74 1066.00 290.00
C 1054.61 284.57 1042.43 278.98 1032.00 272.00
C 985.85 254.62 940.17 222.74 890.08 224.08 C 861.08 269.43 876.71 332.18 852.77 380.77 C 830.15 425.93 798.00 468.40 800.00 522.00 Z"/>
</g>
<g fill="#000000" fill-opacity="0.69" stroke="None"><path d="
M 1066.00 290.00 
C 1055.51 282.98 1043.43 277.97 1032.00 272.00
C 1042.43 278.98 1054.61 284.57 1066.00 290.00 Z"/>
</g>
<g fill="#000000" fill-opacity="0.99" stroke="None"><path d="
M 261.00 534.00 
C 270.98 543.30 279.38 554.23 289.00 564.00
C 290.67 568.61 295.13 571.88 298.00 576.00
C 305.33 582.51 312.55 589.71 319.00 597.00
C 358.96 637.20 402.63 678.10 440.00 718.00
C 440.23 718.16 440.00 719.00 440.00 719.00
C 477.80 690.38 516.57 660.47 557.00 635.00
C 532.24 600.69 503.79 566.55 488.99 526.01 C 473.56 486.46 470.06 437.35 429.00 411.00
C 418.96 401.93 409.38 391.97 402.00 381.00
C 382.07 350.22 368.93 314.95 372.00 278.00
C 334.62 294.67 304.93 326.09 272.25 351.25 C 248.32 385.79 192.72 395.25 185.08 436.92 C 206.32 471.68 235.06 501.93 261.00 534.00 Z"/>
</g>
<g fill="#000000" fill-opacity="0.99" stroke="None"><path d="
M 975.00 651.00 
C 982.30 639.65 997.44 624.56 1009.00 618.00
C 1024.63 608.24 1040.34 597.34 1058.77 590.77 C 1133.23 574.68 1146.12 461.83 1223.26 449.26 C 1255.28 451.57 1233.23 428.98 1221.30 414.70 C 1209.96 400.08 1198.89 385.35 1187.00 371.00
C 1178.13 360.87 1168.47 350.06 1158.00 341.00
C 1130.79 308.46 1072.48 291.42 1056.31 343.31 C 1034.48 401.25 1007.74 459.46 949.75 490.75 C 905.53 532.88 878.15 628.45 935.30 668.70 C 954.02 693.25 963.10 667.26 975.00 651.00 Z"/>
</g>
<g fill="#000000" fill-opacity="0.40" stroke="None"><path d="
M 1158.00 341.00 
C 1168.47 350.06 1178.13 360.87 1187.00 371.00
C 1178.80 358.91 1168.21 347.97 1157.00 338.00
C 1156.85 339.18 1157.43 340.06 1158.00 341.00 Z"/>
</g>
<g fill="#000000" fill-opacity="0.52" stroke="None"><path d="
M 443.00 409.00 
C 432.78 398.53 422.83 387.47 413.00 377.00
C 421.90 388.27 430.67 400.63 443.00 409.00 Z"/>
</g>
<g fill="#000000" fill-opacity="0.52" stroke="None"><path d="
M 429.00 411.00 
C 421.30 400.49 410.68 390.86 402.00 381.00
C 409.38 391.97 418.96 401.93 429.00 411.00 Z"/>
</g>
<g fill="#000000" fill-opacity="0.47" stroke="None"><path d="
M 652.00 478.00 
C 652.00 470.67 652.00 463.33 652.00 456.00
C 648.30 458.03 649.21 472.79 652.00 478.00 Z"/>
</g>
<g fill="#000000" fill-opacity="0.99" stroke="None"><path d="
M 984.00 719.00 
C 986.28 725.94 990.90 731.94 995.00 738.00
C 1005.41 759.84 1017.48 764.40 1031.75 741.75 C 1046.47 727.33 1064.58 717.40 1084.33 713.33 C 1151.29 716.55 1196.61 661.09 1253.97 642.02 C 1270.46 630.33 1312.86 650.08 1316.99 630.01 C 1304.82 569.66 1290.56 506.52 1249.25 458.75 C 1208.83 448.95 1174.24 487.68 1152.25 518.25 C 1125.40 574.55 1070.32 600.86 1018.08 627.08 C 987.39 647.13 947.24 686.42 984.00 719.00 Z"/>
</g>
<g fill="#000000" fill-opacity="0.89" stroke="None"><path d="
M 799.00 526.00 
C 799.00 539.00 799.00 552.00 799.00 565.00
C 799.50 567.85 797.92 571.90 800.00 574.00
C 800.00 556.67 800.00 539.33 800.00 522.00
C 798.24 522.50 799.28 524.72 799.00 526.00 Z"/>
</g>
<g fill="#000000" fill-opacity="0.47" stroke="None"><path d="
M 791.00 562.00 
C 791.00 549.33 791.00 536.67 791.00 524.00
C 789.33 532.86 789.34 550.87 791.00 562.00 Z"/>
</g>
<g fill="#000000" fill-opacity="0.44" stroke="None"><path d="
M 799.00 565.00 
C 799.00 552.00 799.00 539.00 799.00 526.00
C 797.33 537.86 797.34 553.07 799.00 565.00 Z"/>
</g>
<g fill="#000000" fill-opacity="0.63" stroke="None"><path d="
M 289.00 564.00 
C 279.38 554.23 270.98 543.30 261.00 534.00
C 268.60 544.79 278.93 554.79 289.00 564.00 Z"/>
</g>
<g fill="#000000" fill-opacity="0.32" stroke="None"><path d="
M 323.00 603.00 
C 324.25 603.30 324.71 604.83 326.00 605.00
C 324.27 601.89 320.67 600.08 319.00 597.00
C 312.55 589.71 305.33 582.51 298.00 576.00
C 306.13 585.14 314.65 593.93 323.00 603.00 Z"/>
</g>
<g fill="#020202" fill-opacity="0.32" stroke="None"><path d="
M 896.00 617.00 
C 896.42 606.33 896.09 595.68 896.00 585.00
C 894.32 594.52 894.35 607.41 896.00 617.00 Z"/>
</g>
<g fill="#000000" fill-opacity="0.75" stroke="None"><path d="
M 326.00 605.00 
C 353.67 631.84 381.21 659.38 408.00 687.00
C 419.16 696.67 428.88 708.38 440.00 718.00
C 402.63 678.10 358.96 637.20 319.00 597.00
C 320.67 600.08 324.27 601.89 326.00 605.00 Z"/>
</g>
<g fill="#000000" fill-opacity="0.11" stroke="None"><path d="
M 384.00 664.00 
C 365.33 643.83 344.62 625.12 326.00 605.00
C 324.71 604.83 324.25 603.30 323.00 603.00
C 342.79 623.62 363.33 644.17 384.00 664.00 Z"/>
</g>
<g fill="#000000" fill-opacity="0.98" stroke="None"><path d="
M 744.00 749.00 
C 740.19 720.62 745.98 696.24 755.78 670.22 C 754.92 648.89 759.04 599.86 725.00 604.00 C 693.99 604.54 662.89 605.41 634.00 614.00
C 658.15 643.87 649.19 685.49 667.08 717.92 C 681.10 748.43 714.63 779.60 744.00 749.00 Z"/>
</g>
<g fill="#000000" fill-opacity="0.43" stroke="None"><path d="
M 384.00 664.00 
C 392.45 670.96 399.51 679.99 408.00 687.00
C 381.21 659.38 353.67 631.84 326.00 605.00
C 344.62 625.12 365.33 643.83 384.00 664.00 Z"/>
</g>
<g fill="#000000" fill-opacity="0.98" stroke="None"><path d="
M 752.00 728.00 
C 753.35 736.33 747.91 749.65 758.00 753.00
C 813.59 776.99 819.95 705.34 851.08 675.08 C 881.00 619.22 789.59 619.42 754.00 607.00
C 771.46 646.66 758.40 687.71 752.00 728.00 Z"/>
</g>
<g fill="#000000" fill-opacity="0.51" stroke="None"><path d="
M 975.00 651.00 
C 985.47 639.63 997.33 627.99 1009.00 618.00
C 997.44 624.56 982.30 639.65 975.00 651.00 Z"/>
</g>
<g fill="#000000" fill-opacity="0.52" stroke="None"><path d="
M 612.00 619.00 
C 624.00 616.98 625.08 631.96 633.00 637.00
C 628.13 630.01 622.47 615.28 612.00 619.00 Z"/>
</g>
<g fill="#000000" fill-opacity="0.98" stroke="None"><path d="
M 537.00 660.00 
C 536.46 661.66 534.44 662.33 534.00 664.00
C 555.87 680.47 567.26 705.71 579.00 729.00
C 587.27 754.97 606.91 776.00 627.77 794.23 C 651.06 819.75 674.70 782.02 694.00 772.00
C 656.44 734.49 644.76 686.49 633.00 637.00
C 625.08 631.96 624.00 616.98 612.00 619.00
C 586.15 629.80 561.43 645.85 537.00 660.00 Z"/>
</g>
<g fill="#000000" fill-opacity="0.99" stroke="None"><path d="
M 810.00 765.00 
C 820.51 776.24 836.06 780.64 849.00 788.00
C 863.97 769.25 874.39 739.43 897.00 731.00
C 915.93 724.99 942.43 732.72 961.00 718.00
C 962.26 716.07 964.00 714.09 966.00 713.00
C 954.74 699.82 942.59 686.78 932.00 673.00
C 912.51 659.02 890.08 649.17 867.00 644.00
C 868.78 692.82 817.08 720.68 810.00 765.00 Z"/>
</g>
<g fill="#000000" fill-opacity="0.99" stroke="None"><path d="
M 1040.00 860.00 
C 1059.43 850.71 1080.16 841.17 1104.00 846.00 C 1173.82 879.31 1230.80 802.46 1299.33 818.33 C 1317.98 810.34 1348.87 851.87 1351.00 828.00 C 1352.20 803.74 1348.08 783.68 1346.98 760.02 C 1333.91 722.13 1347.26 654.72 1294.00 648.00 C 1224.27 644.36 1182.54 714.48 1116.67 721.67 C 1083.16 722.95 1006.08 741.93 1032.07 786.93 C 1044.34 809.13 1037.31 835.60 1040.00 860.00 Z"/>
</g>
<g fill="#000000" fill-opacity="0.50" stroke="None"><path d="
M 579.00 729.00 
C 567.26 705.71 555.87 680.47 534.00 664.00
C 534.44 662.33 536.46 661.66 537.00 660.00
C 534.90 662.20 532.22 660.65 531.00 664.00
C 554.92 678.92 564.85 706.89 579.00 729.00 Z"/>
</g>
<g fill="#000000" fill-opacity="0.51" stroke="None"><path d="
M 961.00 718.00 
C 972.68 703.60 939.64 687.43 932.00 673.00
C 942.59 686.78 954.74 699.82 966.00 713.00
C 964.00 714.09 962.26 716.07 961.00 718.00 Z"/>
</g>
<g fill="#000000" fill-opacity="0.98" stroke="None"><path d="
M 638.00 812.00 
C 593.59 789.71 574.12 738.79 550.75 698.25 C 514.64 651.72 455.70 714.60 442.00 752.00
C 480.27 761.98 513.93 784.13 541.92 814.08 C 570.29 838.85 625.70 864.20 638.00 812.00 Z"/>
</g>
<g fill="#000000" fill-opacity="0.12" stroke="None"><path d="
M 440.00 719.00 
C 440.00 719.00 440.23 718.16 440.00 718.00
C 428.88 708.38 419.16 696.67 408.00 687.00
C 418.12 697.96 429.00 708.83 440.00 719.00 Z"/>
</g>
<g fill="#000000" fill-opacity="0.51" stroke="None"><path d="
M 995.00 738.00 
C 990.90 731.94 986.28 725.94 984.00 719.00
C 981.07 721.28 989.33 734.37 995.00 738.00 Z"/>
</g>
<g fill="#000000" fill-opacity="0.40" stroke="None"><path d="
M 758.00 753.00 
C 747.91 749.65 753.35 736.33 752.00 728.00
C 750.17 727.85 751.67 725.24 750.00 725.00
C 751.17 734.02 745.72 752.33 758.00 753.00 Z"/>
</g>
<g fill="#000000" fill-opacity="0.98" stroke="None"><path d="
M 972.00 725.00 
C 945.97 747.49 900.52 726.53 881.30 759.30 C 851.91 783.12 863.74 815.73 877.00 843.00
C 904.60 790.00 963.12 825.37 1005.78 820.78 C 1053.11 801.68 990.74 750.57 972.00 725.00 Z"/>
</g>
<g fill="#000000" fill-opacity="0.49" stroke="None"><path d="
M 810.00 765.00 
C 817.37 777.32 836.74 781.17 849.00 790.00
C 864.23 770.17 874.33 744.08 897.00 731.00
C 874.39 739.43 863.97 769.25 849.00 788.00
C 836.06 780.64 820.51 776.24 810.00 765.00 Z"/>
</g>
<g fill="#000000" fill-opacity="0.98" stroke="None"><path d="
M 441.00 762.00 
C 423.08 773.39 419.72 804.56 403.92 821.92 C 398.50 839.13 370.99 885.00 398.78 884.78 C 425.66 877.49 454.40 881.10 480.98 888.02 C 522.38 898.95 595.02 925.36 613.68 873.68 C 624.06 841.11 574.73 855.19 558.23 837.77 C 518.79 813.35 490.01 765.94 441.00 762.00 Z"/>
</g>
<g fill="#000000" fill-opacity="0.97" stroke="None"><path d="
M 772.00 765.00 
C 732.18 754.19 736.95 787.75 752.01 810.99 C 747.83 833.71 784.60 864.42 791.00 831.00 C 795.72 808.05 794.43 777.69 772.00 765.00 Z"/>
</g>
<g fill="#000000" fill-opacity="0.98" stroke="None"><path d="
M 703.00 778.00 
C 697.87 785.73 682.93 790.61 688.00 802.00
C 689.73 806.06 692.25 809.51 695.00 813.00
C 695.54 814.66 697.56 815.33 698.00 817.00
C 709.94 825.64 718.32 841.96 732.00 846.00
C 774.19 838.64 729.51 793.18 726.00 770.00
C 717.64 770.54 710.15 774.21 703.00 778.00 Z"/>
</g>
<g fill="#000000" fill-opacity="0.98" stroke="None"><path d="
M 795.00 771.00 
C 808.15 801.50 795.81 832.38 795.03 862.98 C 811.87 870.26 841.57 840.01 849.23 820.23 C 853.06 791.94 812.99 784.57 795.00 771.00 Z"/>
</g>
<g fill="#000000" fill-opacity="0.66" stroke="None"><path d="
M 688.00 802.00 
C 682.93 790.61 697.87 785.73 703.00 778.00
C 697.18 784.46 679.11 792.88 688.00 802.00 Z"/>
</g>
<g fill="#000000" fill-opacity="0.58" stroke="None"><path d="
M 671.00 802.00 
C 680.32 809.69 686.29 820.62 696.00 828.00
C 686.74 820.52 680.30 805.78 671.00 802.00 Z"/>
</g>
<g fill="#000000" fill-opacity="0.97" stroke="None"><path d="
M 696.00 828.00 
C 686.29 820.62 680.32 809.69 671.00 802.00
C 655.13 812.46 629.65 830.37 630.00 853.00
C 654.40 843.98 679.13 855.49 702.00 863.00
C 720.71 852.22 708.97 838.62 696.00 828.00 Z"/>
</g>
<g fill="#000000" fill-opacity="0.42" stroke="None"><path d="
M 726.00 846.00 
C 717.33 835.84 706.62 827.12 698.00 817.00
C 697.56 815.33 695.54 814.66 695.00 813.00
C 701.31 824.36 715.76 835.58 726.00 846.00 Z"/>
</g>
<g fill="#000000" fill-opacity="0.71" stroke="None"><path d="
M 726.00 846.00 
C 726.96 847.69 730.97 847.43 732.00 846.00
C 718.32 841.96 709.94 825.64 698.00 817.00
C 706.62 827.12 717.33 835.84 726.00 846.00 Z"/>
</g>
<g fill="#000000" fill-opacity="0.98" stroke="None"><path d="
M 1026.00 824.00 
C 985.34 850.92 931.82 800.04 895.25 837.25 C 854.03 881.48 936.86 900.51 967.98 892.98 C 988.43 881.56 1012.48 912.83 1021.08 887.08 C 1028.48 866.91 1032.98 845.38 1026.00 824.00 Z"/>
</g>
<g fill="#000000" fill-opacity="0.96" stroke="None"><path d="
M 819.00 899.00 
C 837.83 899.41 853.62 887.21 868.92 876.92 C 877.50 864.55 865.54 839.04 857.00 827.00
C 847.44 848.53 828.23 868.01 805.00 874.00
C 808.14 882.98 810.82 893.26 819.00 899.00 Z"/>
</g>
<g fill="#000000" fill-opacity="0.99" stroke="None"><path d="
M 1003.00 949.00 
C 1062.03 937.44 1102.14 981.53 1144.92 1012.08 C 1174.41 1019.25 1204.16 1002.37 1235.00 1005.00 C 1260.90 993.21 1294.35 1035.03 1307.68 1010.68 C 1328.72 960.20 1343.10 916.15 1349.33 863.67 C 1346.79 829.90 1303.02 834.51 1278.00 832.00 C 1219.17 825.59 1172.79 886.25 1115.07 856.93 C 1049.30 839.02 1019.94 898.94 1003.00 949.00 Z"/>
</g>
<g fill="#000000" fill-opacity="0.95" stroke="None"><path d="
M 800.00 883.00 
C 794.07 870.24 785.17 855.31 771.00 850.00
C 761.25 872.33 774.83 895.23 800.00 883.00 Z"/>
</g>
<g fill="#000000" fill-opacity="0.97" stroke="None"><path d="
M 720.00 864.00 
C 727.43 869.06 732.04 878.90 741.00 881.00
C 743.34 881.20 746.03 880.41 748.00 882.00
C 756.58 878.02 754.46 865.58 761.00 861.00
C 759.16 858.07 760.32 854.34 760.00 851.00
C 745.49 853.88 731.07 857.32 716.00 858.00
C 715.76 860.77 719.15 861.65 720.00 864.00 Z"/>
</g>
<g fill="#000000" fill-opacity="0.98" stroke="None"><path d="
M 616.00 915.00 
C 629.52 912.81 642.94 910.12 657.00 910.00
C 668.73 908.63 680.28 911.27 689.00 904.00
C 700.28 878.18 680.02 851.89 651.00 862.00 C 620.55 857.44 618.17 893.92 616.00 915.00 Z"/>
</g>
<g fill="#000000" fill-opacity="0.59" stroke="None"><path d="
M 741.00 881.00 
C 732.04 878.90 727.43 869.06 720.00 864.00
C 725.67 870.15 732.24 882.08 741.00 881.00 Z"/>
</g>
<g fill="#000000" fill-opacity="0.53" stroke="None"><path d="
M 707.00 870.00 
C 715.28 865.66 720.85 880.41 728.00 884.00
C 723.73 878.20 711.92 862.10 707.00 870.00 Z"/>
</g>
<g fill="#000000" fill-opacity="0.92" stroke="None"><path d="
M 707.00 870.00 
C 704.55 873.92 701.46 877.69 700.00 882.00
C 709.95 887.40 721.13 890.28 732.00 893.00
C 732.12 889.49 729.78 886.79 728.00 884.00
C 720.85 880.41 715.28 865.66 707.00 870.00 Z"/>
</g>
<g fill="#000000" fill-opacity="0.99" stroke="None"><path d="
M 833.00 930.00 
C 839.99 931.00 847.55 932.33 854.00 934.00
C 868.56 934.39 865.45 912.60 873.00 906.00
C 870.60 900.11 870.96 893.52 871.00 887.00
C 855.53 895.48 840.82 908.08 822.00 908.00 C 790.27 903.08 816.12 931.61 833.00 930.00 Z"/>
</g>
<g fill="#000000" fill-opacity="0.94" stroke="None"><path d="
M 759.00 890.00 
C 740.79 890.13 734.59 916.59 752.00 924.00
C 767.48 917.72 762.51 902.05 759.00 890.00 Z"/>
</g>
<g fill="#000000" fill-opacity="0.99" stroke="None"><path d="
M 566.00 983.00 
C 577.11 974.83 586.26 962.55 598.00 955.00
C 618.60 943.98 603.07 920.94 606.00 903.00
C 568.58 919.41 524.08 913.46 487.01 899.99 C 455.02 893.36 390.99 873.41 380.33 917.33 C 373.60 958.74 377.75 1003.40 391.00 1042.00
C 441.29 992.78 505.20 998.07 566.00 983.00 Z"/>
</g>
<g fill="#000000" fill-opacity="0.98" stroke="None"><path d="
M 1007.00 912.00 
C 988.28 891.53 960.79 907.75 938.01 904.99 C 920.38 905.59 881.85 875.74 881.00 907.00 C 877.02 930.52 903.49 943.91 920.77 952.23 C 938.44 956.13 965.07 980.18 978.08 964.08 C 987.68 946.66 1000.61 931.61 1007.00 912.00 Z"/>
</g>
<g fill="#000000" fill-opacity="0.96" stroke="None"><path d="
M 802.00 900.00 
C 787.68 886.71 763.32 901.69 770.00 922.00
C 789.08 927.53 795.42 911.88 802.00 900.00 Z"/>
</g>
<g fill="#000000" fill-opacity="0.94" stroke="None"><path d="
M 709.00 896.00 
C 688.08 893.91 702.15 920.88 716.97 911.02 C 737.38 909.88 721.30 895.55 709.00 896.00 Z"/>
</g>
<g fill="#000000" fill-opacity="0.46" stroke="None"><path d="
M 616.00 915.00 
C 627.63 915.21 644.06 913.30 657.00 910.00
C 642.94 910.12 629.52 912.81 616.00 915.00 Z"/>
</g>
<g fill="#000000" fill-opacity="0.98" stroke="None"><path d="
M 698.00 935.00 
C 694.66 905.94 659.40 922.99 641.00 923.00 C 606.97 917.89 619.31 947.94 625.07 967.93 C 631.07 986.83 630.60 1009.97 647.00 1024.00
C 649.59 1020.29 649.17 1013.99 654.00 1013.00
C 657.33 985.86 668.11 950.35 698.00 935.00 Z"/>
</g>
<g fill="#000000" fill-opacity="0.98" stroke="None"><path d="
M 710.00 929.00 
C 710.30 930.25 711.83 930.71 712.00 932.00
C 712.25 932.25 712.80 932.68 713.00 933.00
C 718.47 938.13 722.13 945.95 729.00 949.00
C 729.97 947.15 730.79 944.76 733.00 944.00
C 735.23 939.87 737.04 932.76 742.00 932.00
C 742.42 917.02 699.63 915.96 710.00 929.00 Z"/>
</g>
<g fill="#000000" fill-opacity="0.97" stroke="None"><path d="
M 853.00 947.00 
C 832.18 939.05 811.20 925.70 788.00 929.00
C 799.17 957.93 831.34 981.48 853.00 947.00 Z"/>
</g>
<g fill="#000000" fill-opacity="0.41" stroke="None"><path d="
M 733.00 944.00 
C 730.79 944.76 729.97 947.15 729.00 949.00
C 722.13 945.95 718.47 938.13 713.00 933.00
C 712.79 932.73 712.21 932.31 712.00 932.00
C 711.83 930.71 710.30 930.25 710.00 929.00
C 710.53 932.45 726.65 959.15 733.00 944.00 Z"/>
</g>
<g fill="#000000" fill-opacity="0.49" stroke="None"><path d="
M 854.00 934.00 
C 847.55 932.33 839.99 931.00 833.00 930.00
C 832.67 931.63 848.92 935.07 854.00 934.00 Z"/>
</g>
<g fill="#000000" fill-opacity="0.83" stroke="None"><path d="
M 713.00 933.00 
C 712.80 932.68 712.25 932.25 712.00 932.00
C 712.21 932.31 712.79 932.73 713.00 933.00 Z"/>
</g>
<g fill="#000000" fill-opacity="0.93" stroke="None"><path d="
M 753.00 933.00 
C 745.23 942.67 721.63 962.56 745.77 968.23 C 768.75 983.33 760.73 943.40 753.00 933.00 Z"/>
</g>
<g fill="#000000" fill-opacity="0.95" stroke="None"><path d="
M 805.00 974.00 
C 799.74 959.40 784.48 928.63 766.00 937.00
C 767.72 960.29 776.31 989.48 805.00 974.00 Z"/>
</g>
<g fill="#000000" fill-opacity="0.98" stroke="None"><path d="
M 868.00 989.00 
C 878.34 1001.79 889.44 1014.85 902.00 1026.00
C 928.95 1047.23 944.99 999.24 962.00 984.00
C 936.28 962.17 903.00 953.82 874.00 938.00
C 854.70 952.31 850.25 972.10 868.00 989.00 Z"/>
</g>
<g fill="#000000" fill-opacity="0.98" stroke="None"><path d="
M 659.00 1049.00 
C 671.05 1058.29 682.44 1073.78 696.00 1077.00
C 707.14 1041.52 673.73 982.05 722.00 967.00
C 713.39 933.78 680.48 947.21 674.77 974.77 C 668.22 998.48 647.46 1024.82 659.00 1049.00 Z"/>
</g>
<g fill="#000000" fill-opacity="0.30" stroke="None"><path d="
M 566.00 983.00 
C 577.88 975.73 587.12 963.50 598.00 955.00
C 586.26 962.55 577.11 974.83 566.00 983.00 Z"/>
</g>
<g fill="#000000" fill-opacity="0.99" stroke="None"><path d="
M 482.00 1153.00 
C 484.40 1149.41 484.96 1144.27 489.00 1142.00
C 492.14 1133.73 502.95 1122.41 511.00 1120.00
C 531.82 1107.99 555.17 1099.57 573.00 1083.00
C 583.51 1071.67 594.71 1060.45 606.00 1050.00
C 643.80 1026.19 616.81 988.36 609.00 956.00
C 559.44 1025.33 463.60 989.93 403.70 1042.69 C 380.14 1056.56 408.03 1090.54 411.68 1111.32 C 417.85 1133.33 430.76 1155.12 441.75 1176.25 C 454.47 1211.66 473.46 1168.73 482.00 1153.00 Z"/>
</g>
<g fill="#000000" fill-opacity="0.99" stroke="None"><path d="
M 1122.00 1011.00 
C 1110.41 1002.46 1100.66 990.44 1090.00 981.00
C 1066.46 960.39 1034.29 957.67 1003.02 959.02 C 978.63 968.21 972.48 1000.22 953.00 1017.00
C 1053.90 1030.21 1068.53 1164.69 1168.98 1177.03 C 1200.64 1198.21 1225.51 1160.70 1241.74 1137.74 C 1257.90 1112.58 1273.36 1084.91 1286.09 1059.10 C 1315.43 1022.71 1254.51 1013.03 1226.00 1016.00 C 1191.13 1013.37 1151.65 1037.44 1122.00 1011.00 Z"/>
</g>
<g fill="#000000" fill-opacity="0.98" stroke="None"><path d="
M 823.00 1044.00 
C 834.43 1054.24 845.12 1065.56 855.00 1077.00
C 877.14 1077.93 894.34 1057.35 909.00 1042.00
C 879.71 1027.27 859.47 999.66 841.75 973.25 C 799.90 968.79 790.51 1020.66 823.00 1044.00 Z"/>
</g>
<g fill="#000000" fill-opacity="0.97" stroke="None"><path d="
M 737.00 975.00 
C 709.05 971.32 702.77 1001.13 706.33 1022.33 C 710.68 1044.25 699.83 1076.60 715.98 1092.02 C 730.34 1092.39 771.97 1109.94 767.32 1087.68 C 761.35 1067.71 751.39 1049.14 746.00 1029.00 C 732.99 1009.98 764.37 975.65 737.00 975.00 Z"/>
</g>
<g fill="#000000" fill-opacity="0.40" stroke="None"><path d="
M 1090.00 981.00 
C 1100.66 990.44 1110.41 1002.46 1122.00 1011.00
C 1111.96 1001.12 1101.14 987.12 1090.00 981.00 Z"/>
</g>
<g fill="#000000" fill-opacity="0.98" stroke="None"><path d="
M 792.00 988.00 
C 723.50 973.16 767.63 1056.97 777.01 1088.99 C 789.07 1109.98 819.12 1086.24 838.99 1086.99 C 855.34 1075.70 817.45 1059.31 810.30 1045.70 C 796.66 1029.27 788.65 1009.15 792.00 988.00 Z"/>
</g>
<g fill="#000000" fill-opacity="0.65" stroke="None"><path d="
M 902.00 1026.00 
C 889.44 1014.85 878.34 1001.79 868.00 989.00
C 877.38 1002.41 888.37 1016.14 902.00 1026.00 Z"/>
</g>
<g fill="#000000" fill-opacity="0.99" stroke="None"><path d="
M 907.00 1060.00 
C 912.99 1066.65 919.21 1075.79 923.00 1082.00
C 969.89 1132.43 952.10 1211.20 1000.75 1260.25 C 1018.23 1289.01 1044.80 1312.77 1075.31 1284.31 C 1102.96 1269.47 1130.19 1255.89 1155.00 1238.00
C 1168.39 1225.44 1185.03 1213.66 1195.00 1198.00
C 1170.17 1181.80 1130.52 1176.26 1102.08 1157.92 C 1070.52 1144.44 1064.48 1107.98 1044.00 1084.00
C 1038.52 1079.98 1034.44 1073.97 1029.00 1070.00
C 995.48 1034.37 940.97 1010.67 907.00 1060.00 Z"/>
</g>
<g fill="#000000" fill-opacity="0.99" stroke="None"><path d="
M 616.00 1207.00 
C 625.68 1196.92 636.87 1187.45 646.00 1177.00
C 671.97 1141.49 691.74 1083.54 649.31 1050.70 C 638.50 1018.35 618.44 1044.98 605.25 1061.25 C 593.02 1078.99 579.15 1097.13 558.69 1105.70 C 512.68 1118.11 490.73 1159.31 464.75 1194.75 C 467.78 1235.97 509.25 1273.12 544.31 1294.70 C 575.42 1317.57 560.40 1270.74 574.08 1256.08 C 584.31 1237.50 599.86 1221.72 616.00 1207.00 Z"/>
</g>
<g fill="#000000" fill-opacity="0.46" stroke="None"><path d="
M 855.00 1077.00 
C 845.12 1065.56 834.43 1054.24 823.00 1044.00
C 832.03 1055.97 844.10 1066.43 855.00 1077.00 Z"/>
</g>
<g fill="#000000" fill-opacity="0.41" stroke="None"><path d="
M 696.00 1077.00 
C 682.44 1073.78 671.05 1058.29 659.00 1049.00
C 667.68 1062.17 683.10 1069.96 694.00 1081.00
C 695.35 1080.34 695.84 1078.41 696.00 1077.00 Z"/>
</g>
<g fill="#000000" fill-opacity="0.55" stroke="None"><path d="
M 573.00 1083.00 
C 585.61 1074.18 596.71 1062.29 606.00 1050.00
C 594.71 1060.45 583.51 1071.67 573.00 1083.00 Z"/>
</g>
<g fill="#000000" fill-opacity="0.55" stroke="None"><path d="
M 923.00 1082.00 
C 919.21 1075.79 912.99 1066.65 907.00 1060.00
C 909.23 1066.76 917.39 1075.16 923.00 1082.00 Z"/>
</g>
<g fill="#000000" fill-opacity="0.35" stroke="None"><path d="
M 1029.00 1070.00 
C 1034.44 1073.97 1038.52 1079.98 1044.00 1084.00
C 1039.54 1077.26 1032.80 1070.20 1026.00 1066.00
C 1026.44 1067.67 1028.46 1068.34 1029.00 1070.00 Z"/>
</g>
<g fill="#000000" fill-opacity="0.99" stroke="None"><path d="
M 858.00 1238.00 
C 858.00 1244.33 858.00 1250.67 858.00 1257.00
C 862.95 1287.08 876.07 1314.67 885.69 1343.31 C 897.68 1375.19 938.82 1342.09 959.78 1340.78 C 981.76 1330.50 1018.78 1326.82 1033.00 1307.00
C 1023.76 1297.92 1011.25 1287.42 1005.00 1278.00
C 1003.58 1275.24 1000.35 1273.73 999.00 1271.00
C 993.54 1265.46 989.10 1258.89 983.00 1254.00
C 977.18 1248.06 969.35 1239.44 969.00 1232.00
C 949.16 1176.77 950.44 1108.51 896.00 1069.00
C 878.10 1093.67 820.09 1089.48 851.70 1129.31 C 866.75 1162.89 861.30 1201.96 858.00 1238.00 Z"/>
</g>
<g fill="#000000" fill-opacity="0.98" stroke="None"><path d="
M 685.00 1099.00 
C 686.61 1103.26 686.70 1110.81 685.00 1115.00
C 680.33 1154.78 657.89 1191.77 624.25 1215.25 C 598.78 1237.57 553.35 1282.95 585.77 1312.23 C 621.70 1332.45 659.39 1350.81 700.00 1358.00
C 709.68 1356.32 722.01 1356.36 732.00 1358.00
C 732.00 1356.00 732.00 1354.00 732.00 1352.00
C 728.79 1346.80 728.91 1334.66 730.00 1328.00
C 721.13 1260.64 750.99 1206.53 748.00 1141.00 C 758.76 1095.26 706.38 1109.97 684.00 1089.00
C 683.77 1092.51 685.71 1095.39 685.00 1099.00 Z"/>
</g>
<g fill="#000000" fill-opacity="0.60" stroke="None"><path d="
M 685.00 1115.00 
C 686.70 1110.81 686.61 1103.26 685.00 1099.00
C 683.24 1103.28 683.47 1110.31 685.00 1115.00 Z"/>
</g>
<g fill="#000000" fill-opacity="0.99" stroke="None"><path d="
M 757.00 1108.00 
C 757.00 1120.00 757.00 1132.00 757.00 1144.00
C 760.01 1216.69 718.33 1288.45 746.00 1359.00
C 756.25 1362.25 766.03 1361.03 777.00 1361.00
C 803.45 1359.81 831.99 1359.00 858.00 1361.00
C 866.29 1360.79 873.63 1361.96 881.00 1360.00
C 868.06 1326.73 850.08 1293.50 847.00 1257.00
C 845.91 1246.82 844.14 1232.59 848.00 1223.00
C 853.34 1189.79 852.78 1155.55 839.32 1124.68 C 834.11 1081.46 785.55 1124.81 757.00 1108.00 Z"/>
</g>
<g fill="#000000" fill-opacity="0.65" stroke="None"><path d="
M 757.00 1144.00 
C 757.00 1132.00 757.00 1120.00 757.00 1108.00
C 755.33 1118.86 755.34 1133.07 757.00 1144.00 Z"/>
</g>
<g fill="#000000" fill-opacity="0.60" stroke="None"><path d="
M 489.00 1142.00 
C 494.20 1135.10 502.97 1126.08 511.00 1120.00
C 502.95 1122.41 492.14 1133.73 489.00 1142.00 Z"/>
</g>
<g fill="#070707" fill-opacity="0.33" stroke="None"><path d="
M 482.00 1153.00 
C 485.20 1150.00 487.91 1145.23 489.00 1142.00
C 484.96 1144.27 484.40 1149.41 482.00 1153.00 Z"/>
</g>
<g fill="#000000" fill-opacity="0.28" stroke="None"><path d="
M 616.00 1207.00 
C 626.39 1197.80 637.82 1188.39 646.00 1177.00
C 636.87 1187.45 625.68 1196.92 616.00 1207.00 Z"/>
</g>
<g fill="#000000" fill-opacity="0.33" stroke="None"><path d="
M 1155.00 1238.00 
C 1169.31 1226.67 1186.00 1214.13 1195.00 1198.00
C 1185.03 1213.66 1168.39 1225.44 1155.00 1238.00 Z"/>
</g>
<g fill="#0B0B0B" fill-opacity="0.33" stroke="None"><path d="
M 847.00 1257.00 
C 847.84 1245.49 846.85 1233.85 848.00 1223.00
C 844.14 1232.59 845.91 1246.82 847.00 1257.00 Z"/>
</g>
<g fill="#000000" fill-opacity="0.53" stroke="None"><path d="
M 983.00 1254.00 
C 978.51 1246.55 972.19 1240.25 969.00 1232.00
C 969.35 1239.44 977.18 1248.06 983.00 1254.00 Z"/>
</g>
<g fill="#000000" fill-opacity="0.60" stroke="None"><path d="
M 858.00 1257.00 
C 858.00 1250.67 858.00 1244.33 858.00 1238.00
C 855.57 1243.02 854.35 1252.10 858.00 1257.00 Z"/>
</g>
<g fill="#000000" fill-opacity="0.14" stroke="None"><path d="
M 1005.00 1278.00 
C 1014.83 1286.34 1023.22 1296.71 1033.00 1305.00
C 1022.22 1293.38 1010.66 1281.84 999.00 1271.00
C 1000.35 1273.73 1003.58 1275.24 1005.00 1278.00 Z"/>
</g>
<g fill="#000000" fill-opacity="0.67" stroke="None"><path d="
M 1033.00 1307.00 
C 1032.80 1306.60 1033.15 1305.45 1033.00 1305.00
C 1023.22 1296.71 1014.83 1286.34 1005.00 1278.00
C 1011.25 1287.42 1023.76 1297.92 1033.00 1307.00 Z"/>
</g>
<g fill="#000000" fill-opacity="0.55" stroke="None"><path d="
M 732.00 1352.00 
C 732.03 1344.47 730.66 1336.00 730.00 1328.00
C 728.91 1334.66 728.79 1346.80 732.00 1352.00 Z"/>
</g>
<g fill="#000000" fill-opacity="0.55" stroke="None"><path d="
M 700.00 1358.00 
C 709.71 1359.65 723.24 1359.94 732.00 1358.00
C 722.01 1356.36 709.68 1356.32 700.00 1358.00 Z"/>
</g>
<g fill="#000000" fill-opacity="0.63" stroke="None"><path d="
M 777.00 1361.00 
C 783.18 1363.26 790.23 1362.19 797.00 1362.00
C 815.09 1359.67 835.15 1361.66 854.00 1361.00
C 855.33 1361.00 856.67 1361.00 858.00 1361.00
C 831.99 1359.00 803.45 1359.81 777.00 1361.00 Z"/>
</g>
<g fill="#000000" fill-opacity="0.31" stroke="None"><path d="
M 797.00 1362.00 
C 815.00 1361.06 840.81 1363.72 854.00 1361.00
C 835.15 1361.66 815.09 1359.67 797.00 1362.00 Z"/>
</g>
</svg>